ISO-10303-21;
HEADER;
/* Generated by software containing ST-Developer
 * from STEP Tools, Inc. (www.steptools.com) 
 */
/* OPTION: using custom renumber hook */

FILE_DESCRIPTION(
/* description */ ('STEP AP242',
'CAx-IF Rec.Pracs.---Representation and Presentation of Product Manufa
cturing Information (PMI)---4.0---2014-10-13',
'CAx-IF Rec.Pracs.---3D Tessellated Geometry---0.4---2014-09-14','2;1'),

/* implementation_level */ '2;1');

FILE_NAME(
/* name */ '664319243aed1a692ef2e0d4',
/* time_stamp */ '2024-05-14T07:56:20Z',
/* author */ (''),
/* organization */ (''),
/* preprocessor_version */ 'ST-DEVELOPER v20',
/* originating_system */ '  ',
/* authorisation */ '  ');

FILE_SCHEMA (('AP242_MANAGED_MODEL_BASED_3D_ENGINEERING_MIM_LF { 1 0 10303 442 1 1 4 }'));
ENDSEC;

DATA;
#10=SHAPE_REPRESENTATION_RELATIONSHIP('','',#697,#11);
#11=ADVANCED_BREP_SHAPE_REPRESENTATION('',(#695),#1101);
#12=ORIENTED_EDGE('',*,*,#196,.F.);
#13=ORIENTED_EDGE('',*,*,#197,.T.);
#14=ORIENTED_EDGE('',*,*,#198,.T.);
#15=ORIENTED_EDGE('',*,*,#199,.T.);
#16=ORIENTED_EDGE('',*,*,#200,.T.);
#17=ORIENTED_EDGE('',*,*,#201,.F.);
#18=ORIENTED_EDGE('',*,*,#202,.F.);
#19=ORIENTED_EDGE('',*,*,#203,.T.);
#20=ORIENTED_EDGE('',*,*,#204,.T.);
#21=ORIENTED_EDGE('',*,*,#205,.F.);
#22=ORIENTED_EDGE('',*,*,#206,.F.);
#23=ORIENTED_EDGE('',*,*,#207,.T.);
#24=ORIENTED_EDGE('',*,*,#208,.T.);
#25=ORIENTED_EDGE('',*,*,#209,.F.);
#26=ORIENTED_EDGE('',*,*,#210,.T.);
#27=ORIENTED_EDGE('',*,*,#211,.T.);
#28=ORIENTED_EDGE('',*,*,#212,.F.);
#29=ORIENTED_EDGE('',*,*,#213,.F.);
#30=ORIENTED_EDGE('',*,*,#214,.T.);
#31=ORIENTED_EDGE('',*,*,#215,.T.);
#32=ORIENTED_EDGE('',*,*,#200,.F.);
#33=ORIENTED_EDGE('',*,*,#216,.T.);
#34=ORIENTED_EDGE('',*,*,#217,.T.);
#35=ORIENTED_EDGE('',*,*,#218,.T.);
#36=ORIENTED_EDGE('',*,*,#219,.T.);
#37=ORIENTED_EDGE('',*,*,#220,.T.);
#38=ORIENTED_EDGE('',*,*,#202,.T.);
#39=ORIENTED_EDGE('',*,*,#221,.T.);
#40=ORIENTED_EDGE('',*,*,#222,.T.);
#41=ORIENTED_EDGE('',*,*,#223,.T.);
#42=ORIENTED_EDGE('',*,*,#224,.T.);
#43=ORIENTED_EDGE('',*,*,#225,.F.);
#44=ORIENTED_EDGE('',*,*,#226,.T.);
#45=ORIENTED_EDGE('',*,*,#227,.T.);
#46=ORIENTED_EDGE('',*,*,#197,.F.);
#47=ORIENTED_EDGE('',*,*,#228,.F.);
#48=ORIENTED_EDGE('',*,*,#229,.F.);
#49=ORIENTED_EDGE('',*,*,#230,.T.);
#50=ORIENTED_EDGE('',*,*,#231,.F.);
#51=ORIENTED_EDGE('',*,*,#232,.T.);
#52=ORIENTED_EDGE('',*,*,#233,.T.);
#53=ORIENTED_EDGE('',*,*,#234,.F.);
#54=ORIENTED_EDGE('',*,*,#235,.T.);
#55=ORIENTED_EDGE('',*,*,#236,.T.);
#56=ORIENTED_EDGE('',*,*,#237,.T.);
#57=ORIENTED_EDGE('',*,*,#238,.T.);
#58=ORIENTED_EDGE('',*,*,#239,.T.);
#59=ORIENTED_EDGE('',*,*,#240,.T.);
#60=ORIENTED_EDGE('',*,*,#214,.F.);
#61=ORIENTED_EDGE('',*,*,#241,.F.);
#62=ORIENTED_EDGE('',*,*,#242,.T.);
#63=ORIENTED_EDGE('',*,*,#243,.T.);
#64=ORIENTED_EDGE('',*,*,#244,.T.);
#65=ORIENTED_EDGE('',*,*,#245,.F.);
#66=ORIENTED_EDGE('',*,*,#229,.T.);
#67=ORIENTED_EDGE('',*,*,#231,.T.);
#68=ORIENTED_EDGE('',*,*,#246,.T.);
#69=ORIENTED_EDGE('',*,*,#234,.T.);
#70=ORIENTED_EDGE('',*,*,#247,.T.);
#71=ORIENTED_EDGE('',*,*,#212,.T.);
#72=ORIENTED_EDGE('',*,*,#248,.F.);
#73=ORIENTED_EDGE('',*,*,#249,.F.);
#74=ORIENTED_EDGE('',*,*,#250,.F.);
#75=ORIENTED_EDGE('',*,*,#251,.T.);
#76=ORIENTED_EDGE('',*,*,#209,.T.);
#77=ORIENTED_EDGE('',*,*,#199,.F.);
#78=ORIENTED_EDGE('',*,*,#227,.F.);
#79=ORIENTED_EDGE('',*,*,#252,.T.);
#80=ORIENTED_EDGE('',*,*,#250,.T.);
#81=ORIENTED_EDGE('',*,*,#198,.F.);
#82=ORIENTED_EDGE('',*,*,#253,.F.);
#83=ORIENTED_EDGE('',*,*,#254,.T.);
#84=ORIENTED_EDGE('',*,*,#225,.T.);
#85=ORIENTED_EDGE('',*,*,#249,.T.);
#86=ORIENTED_EDGE('',*,*,#211,.F.);
#87=ORIENTED_EDGE('',*,*,#255,.T.);
#88=ORIENTED_EDGE('',*,*,#253,.T.);
#89=ORIENTED_EDGE('',*,*,#248,.T.);
#90=ORIENTED_EDGE('',*,*,#256,.T.);
#91=ORIENTED_EDGE('',*,*,#257,.T.);
#92=ORIENTED_EDGE('',*,*,#258,.T.);
#93=ORIENTED_EDGE('',*,*,#259,.T.);
#94=ORIENTED_EDGE('',*,*,#260,.T.);
#95=ORIENTED_EDGE('',*,*,#261,.T.);
#96=ORIENTED_EDGE('',*,*,#245,.T.);
#97=ORIENTED_EDGE('',*,*,#262,.T.);
#98=ORIENTED_EDGE('',*,*,#206,.T.);
#99=ORIENTED_EDGE('',*,*,#263,.T.);
#100=ORIENTED_EDGE('',*,*,#246,.F.);
#101=ORIENTED_EDGE('',*,*,#230,.F.);
#102=ORIENTED_EDGE('',*,*,#224,.F.);
#103=ORIENTED_EDGE('',*,*,#264,.T.);
#104=ORIENTED_EDGE('',*,*,#236,.F.);
#105=ORIENTED_EDGE('',*,*,#228,.T.);
#106=ORIENTED_EDGE('',*,*,#196,.T.);
#107=ORIENTED_EDGE('',*,*,#265,.T.);
#108=ORIENTED_EDGE('',*,*,#216,.F.);
#109=ORIENTED_EDGE('',*,*,#266,.T.);
#110=ORIENTED_EDGE('',*,*,#201,.T.);
#111=ORIENTED_EDGE('',*,*,#215,.F.);
#112=ORIENTED_EDGE('',*,*,#240,.F.);
#113=ORIENTED_EDGE('',*,*,#267,.T.);
#114=ORIENTED_EDGE('',*,*,#247,.F.);
#115=ORIENTED_EDGE('',*,*,#268,.T.);
#116=ORIENTED_EDGE('',*,*,#205,.T.);
#117=ORIENTED_EDGE('',*,*,#269,.T.);
#118=ORIENTED_EDGE('',*,*,#241,.T.);
#119=ORIENTED_EDGE('',*,*,#213,.T.);
#120=ORIENTED_EDGE('',*,*,#270,.F.);
#121=ORIENTED_EDGE('',*,*,#260,.F.);
#122=ORIENTED_EDGE('',*,*,#271,.F.);
#123=ORIENTED_EDGE('',*,*,#210,.F.);
#124=ORIENTED_EDGE('',*,*,#271,.T.);
#125=ORIENTED_EDGE('',*,*,#259,.F.);
#126=ORIENTED_EDGE('',*,*,#272,.F.);
#127=ORIENTED_EDGE('',*,*,#255,.F.);
#128=ORIENTED_EDGE('',*,*,#270,.T.);
#129=ORIENTED_EDGE('',*,*,#251,.F.);
#130=ORIENTED_EDGE('',*,*,#273,.F.);
#131=ORIENTED_EDGE('',*,*,#261,.F.);
#132=ORIENTED_EDGE('',*,*,#272,.T.);
#133=ORIENTED_EDGE('',*,*,#258,.F.);
#134=ORIENTED_EDGE('',*,*,#274,.F.);
#135=ORIENTED_EDGE('',*,*,#254,.F.);
#136=ORIENTED_EDGE('',*,*,#273,.T.);
#137=ORIENTED_EDGE('',*,*,#252,.F.);
#138=ORIENTED_EDGE('',*,*,#275,.F.);
#139=ORIENTED_EDGE('',*,*,#256,.F.);
#140=ORIENTED_EDGE('',*,*,#274,.T.);
#141=ORIENTED_EDGE('',*,*,#257,.F.);
#142=ORIENTED_EDGE('',*,*,#275,.T.);
#143=ORIENTED_EDGE('',*,*,#226,.F.);
#144=ORIENTED_EDGE('',*,*,#267,.F.);
#145=ORIENTED_EDGE('',*,*,#239,.F.);
#146=ORIENTED_EDGE('',*,*,#276,.F.);
#147=ORIENTED_EDGE('',*,*,#217,.F.);
#148=ORIENTED_EDGE('',*,*,#266,.F.);
#149=ORIENTED_EDGE('',*,*,#218,.F.);
#150=ORIENTED_EDGE('',*,*,#277,.F.);
#151=ORIENTED_EDGE('',*,*,#221,.F.);
#152=ORIENTED_EDGE('',*,*,#277,.T.);
#153=ORIENTED_EDGE('',*,*,#276,.T.);
#154=ORIENTED_EDGE('',*,*,#278,.F.);
#155=ORIENTED_EDGE('',*,*,#278,.T.);
#156=ORIENTED_EDGE('',*,*,#238,.F.);
#157=ORIENTED_EDGE('',*,*,#279,.F.);
#158=ORIENTED_EDGE('',*,*,#219,.F.);
#159=ORIENTED_EDGE('',*,*,#265,.F.);
#160=ORIENTED_EDGE('',*,*,#220,.F.);
#161=ORIENTED_EDGE('',*,*,#280,.F.);
#162=ORIENTED_EDGE('',*,*,#222,.F.);
#163=ORIENTED_EDGE('',*,*,#280,.T.);
#164=ORIENTED_EDGE('',*,*,#279,.T.);
#165=ORIENTED_EDGE('',*,*,#281,.F.);
#166=ORIENTED_EDGE('',*,*,#281,.T.);
#167=ORIENTED_EDGE('',*,*,#237,.F.);
#168=ORIENTED_EDGE('',*,*,#264,.F.);
#169=ORIENTED_EDGE('',*,*,#223,.F.);
#170=ORIENTED_EDGE('',*,*,#262,.F.);
#171=ORIENTED_EDGE('',*,*,#244,.F.);
#172=ORIENTED_EDGE('',*,*,#282,.F.);
#173=ORIENTED_EDGE('',*,*,#207,.F.);
#174=ORIENTED_EDGE('',*,*,#263,.F.);
#175=ORIENTED_EDGE('',*,*,#208,.F.);
#176=ORIENTED_EDGE('',*,*,#283,.F.);
#177=ORIENTED_EDGE('',*,*,#235,.F.);
#178=ORIENTED_EDGE('',*,*,#283,.T.);
#179=ORIENTED_EDGE('',*,*,#282,.T.);
#180=ORIENTED_EDGE('',*,*,#284,.F.);
#181=ORIENTED_EDGE('',*,*,#284,.T.);
#182=ORIENTED_EDGE('',*,*,#243,.F.);
#183=ORIENTED_EDGE('',*,*,#285,.F.);
#184=ORIENTED_EDGE('',*,*,#232,.F.);
#185=ORIENTED_EDGE('',*,*,#268,.F.);
#186=ORIENTED_EDGE('',*,*,#233,.F.);
#187=ORIENTED_EDGE('',*,*,#286,.F.);
#188=ORIENTED_EDGE('',*,*,#203,.F.);
#189=ORIENTED_EDGE('',*,*,#286,.T.);
#190=ORIENTED_EDGE('',*,*,#285,.T.);
#191=ORIENTED_EDGE('',*,*,#287,.F.);
#192=ORIENTED_EDGE('',*,*,#287,.T.);
#193=ORIENTED_EDGE('',*,*,#242,.F.);
#194=ORIENTED_EDGE('',*,*,#269,.F.);
#195=ORIENTED_EDGE('',*,*,#204,.F.);
#196=EDGE_CURVE('',#288,#289,#342,.T.);
#197=EDGE_CURVE('',#288,#290,#343,.T.);
#198=EDGE_CURVE('',#290,#291,#344,.T.);
#199=EDGE_CURVE('',#291,#292,#345,.T.);
#200=EDGE_CURVE('',#292,#293,#346,.T.);
#201=EDGE_CURVE('',#294,#293,#347,.T.);
#202=EDGE_CURVE('',#289,#294,#348,.T.);
#203=EDGE_CURVE('',#295,#296,#349,.T.);
#204=EDGE_CURVE('',#296,#297,#350,.T.);
#205=EDGE_CURVE('',#295,#297,#351,.T.);
#206=EDGE_CURVE('',#298,#299,#352,.T.);
#207=EDGE_CURVE('',#298,#300,#353,.T.);
#208=EDGE_CURVE('',#300,#299,#354,.T.);
#209=EDGE_CURVE('',#301,#292,#355,.T.);
#210=EDGE_CURVE('',#301,#302,#356,.T.);
#211=EDGE_CURVE('',#302,#303,#357,.T.);
#212=EDGE_CURVE('',#304,#303,#358,.T.);
#213=EDGE_CURVE('',#305,#304,#359,.T.);
#214=EDGE_CURVE('',#305,#306,#360,.T.);
#215=EDGE_CURVE('',#306,#293,#361,.T.);
#216=EDGE_CURVE('',#307,#308,#362,.T.);
#217=EDGE_CURVE('',#308,#309,#363,.T.);
#218=EDGE_CURVE('',#309,#307,#364,.T.);
#219=EDGE_CURVE('',#310,#311,#365,.T.);
#220=EDGE_CURVE('',#311,#289,#366,.T.);
#221=EDGE_CURVE('',#294,#310,#367,.T.);
#222=EDGE_CURVE('',#312,#313,#368,.T.);
#223=EDGE_CURVE('',#313,#314,#369,.T.);
#224=EDGE_CURVE('',#314,#312,#370,.T.);
#225=EDGE_CURVE('',#315,#316,#371,.T.);
#226=EDGE_CURVE('',#315,#317,#372,.T.);
#227=EDGE_CURVE('',#317,#290,#373,.T.);
#228=EDGE_CURVE('',#318,#288,#374,.T.);
#229=EDGE_CURVE('',#319,#318,#375,.T.);
#230=EDGE_CURVE('',#319,#320,#376,.T.);
#231=EDGE_CURVE('',#316,#320,#377,.T.);
#232=EDGE_CURVE('',#321,#322,#378,.T.);
#233=EDGE_CURVE('',#322,#323,#379,.T.);
#234=EDGE_CURVE('',#324,#323,#380,.T.);
#235=EDGE_CURVE('',#324,#321,#381,.T.);
#236=EDGE_CURVE('',#318,#325,#382,.T.);
#237=EDGE_CURVE('',#325,#326,#383,.T.);
#238=EDGE_CURVE('',#326,#327,#384,.T.);
#239=EDGE_CURVE('',#327,#328,#385,.T.);
#240=EDGE_CURVE('',#328,#306,#386,.T.);
#241=EDGE_CURVE('',#329,#305,#387,.T.);
#242=EDGE_CURVE('',#329,#330,#388,.T.);
#243=EDGE_CURVE('',#330,#331,#389,.T.);
#244=EDGE_CURVE('',#331,#332,#390,.T.);
#245=EDGE_CURVE('',#319,#332,#391,.T.);
#246=EDGE_CURVE('',#320,#324,#392,.T.);
#247=EDGE_CURVE('',#323,#304,#393,.T.);
#248=EDGE_CURVE('',#333,#303,#394,.T.);
#249=EDGE_CURVE('',#316,#333,#395,.T.);
#250=EDGE_CURVE('',#334,#291,#396,.T.);
#251=EDGE_CURVE('',#334,#301,#397,.T.);
#252=EDGE_CURVE('',#317,#334,#398,.T.);
#253=EDGE_CURVE('',#335,#333,#399,.T.);
#254=EDGE_CURVE('',#335,#315,#400,.T.);
#255=EDGE_CURVE('',#302,#335,#401,.T.);
#256=EDGE_CURVE('',#336,#337,#402,.T.);
#257=EDGE_CURVE('',#337,#338,#403,.T.);
#258=EDGE_CURVE('',#338,#339,#404,.T.);
#259=EDGE_CURVE('',#339,#340,#405,.T.);
#260=EDGE_CURVE('',#340,#341,#406,.T.);
#261=EDGE_CURVE('',#341,#336,#407,.T.);
#262=EDGE_CURVE('',#332,#298,#408,.F.);
#263=EDGE_CURVE('',#299,#324,#409,.F.);
#264=EDGE_CURVE('',#314,#325,#410,.F.);
#265=EDGE_CURVE('',#289,#312,#411,.T.);
#266=EDGE_CURVE('',#307,#294,#412,.T.);
#267=EDGE_CURVE('',#328,#308,#413,.F.);
#268=EDGE_CURVE('',#323,#295,#414,.F.);
#269=EDGE_CURVE('',#297,#329,#415,.F.);
#270=EDGE_CURVE('',#341,#301,#416,.T.);
#271=EDGE_CURVE('',#302,#340,#417,.T.);
#272=EDGE_CURVE('',#335,#339,#418,.T.);
#273=EDGE_CURVE('',#336,#334,#419,.F.);
#274=EDGE_CURVE('',#315,#338,#420,.T.);
#275=EDGE_CURVE('',#337,#317,#421,.F.);
#276=EDGE_CURVE('',#309,#327,#422,.F.);
#277=EDGE_CURVE('',#310,#309,#423,.T.);
#278=EDGE_CURVE('',#310,#327,#424,.F.);
#279=EDGE_CURVE('',#311,#326,#425,.T.);
#280=EDGE_CURVE('',#313,#311,#426,.T.);
#281=EDGE_CURVE('',#313,#326,#427,.T.);
#282=EDGE_CURVE('',#300,#331,#428,.F.);
#283=EDGE_CURVE('',#321,#300,#429,.F.);
#284=EDGE_CURVE('',#321,#331,#430,.T.);
#285=EDGE_CURVE('',#322,#330,#431,.F.);
#286=EDGE_CURVE('',#296,#322,#432,.F.);
#287=EDGE_CURVE('',#296,#330,#433,.T.);
#288=VERTEX_POINT('',#916);
#289=VERTEX_POINT('',#917);
#290=VERTEX_POINT('',#919);
#291=VERTEX_POINT('',#921);
#292=VERTEX_POINT('',#923);
#293=VERTEX_POINT('',#925);
#294=VERTEX_POINT('',#927);
#295=VERTEX_POINT('',#931);
#296=VERTEX_POINT('',#932);
#297=VERTEX_POINT('',#934);
#298=VERTEX_POINT('',#938);
#299=VERTEX_POINT('',#939);
#300=VERTEX_POINT('',#941);
#301=VERTEX_POINT('',#945);
#302=VERTEX_POINT('',#947);
#303=VERTEX_POINT('',#949);
#304=VERTEX_POINT('',#951);
#305=VERTEX_POINT('',#953);
#306=VERTEX_POINT('',#955);
#307=VERTEX_POINT('',#959);
#308=VERTEX_POINT('',#960);
#309=VERTEX_POINT('',#962);
#310=VERTEX_POINT('',#966);
#311=VERTEX_POINT('',#967);
#312=VERTEX_POINT('',#972);
#313=VERTEX_POINT('',#973);
#314=VERTEX_POINT('',#975);
#315=VERTEX_POINT('',#979);
#316=VERTEX_POINT('',#980);
#317=VERTEX_POINT('',#982);
#318=VERTEX_POINT('',#985);
#319=VERTEX_POINT('',#987);
#320=VERTEX_POINT('',#989);
#321=VERTEX_POINT('',#993);
#322=VERTEX_POINT('',#994);
#323=VERTEX_POINT('',#996);
#324=VERTEX_POINT('',#998);
#325=VERTEX_POINT('',#1002);
#326=VERTEX_POINT('',#1004);
#327=VERTEX_POINT('',#1006);
#328=VERTEX_POINT('',#1008);
#329=VERTEX_POINT('',#1011);
#330=VERTEX_POINT('',#1013);
#331=VERTEX_POINT('',#1015);
#332=VERTEX_POINT('',#1017);
#333=VERTEX_POINT('',#1023);
#334=VERTEX_POINT('',#1027);
#335=VERTEX_POINT('',#1033);
#336=VERTEX_POINT('',#1039);
#337=VERTEX_POINT('',#1040);
#338=VERTEX_POINT('',#1042);
#339=VERTEX_POINT('',#1044);
#340=VERTEX_POINT('',#1046);
#341=VERTEX_POINT('',#1048);
#342=LINE('',#915,#434);
#343=LINE('',#918,#435);
#344=LINE('',#920,#436);
#345=LINE('',#922,#437);
#346=LINE('',#924,#438);
#347=LINE('',#926,#439);
#348=LINE('',#928,#440);
#349=LINE('',#930,#441);
#350=LINE('',#933,#442);
#351=LINE('',#935,#443);
#352=LINE('',#937,#444);
#353=LINE('',#940,#445);
#354=LINE('',#942,#446);
#355=LINE('',#944,#447);
#356=LINE('',#946,#448);
#357=LINE('',#948,#449);
#358=LINE('',#950,#450);
#359=LINE('',#952,#451);
#360=LINE('',#954,#452);
#361=LINE('',#956,#453);
#362=LINE('',#958,#454);
#363=LINE('',#961,#455);
#364=LINE('',#963,#456);
#365=LINE('',#965,#457);
#366=LINE('',#968,#458);
#367=LINE('',#969,#459);
#368=LINE('',#971,#460);
#369=LINE('',#974,#461);
#370=LINE('',#976,#462);
#371=LINE('',#978,#463);
#372=LINE('',#981,#464);
#373=LINE('',#983,#465);
#374=LINE('',#984,#466);
#375=LINE('',#986,#467);
#376=LINE('',#988,#468);
#377=LINE('',#990,#469);
#378=LINE('',#992,#470);
#379=LINE('',#995,#471);
#380=LINE('',#997,#472);
#381=LINE('',#999,#473);
#382=LINE('',#1001,#474);
#383=LINE('',#1003,#475);
#384=LINE('',#1005,#476);
#385=LINE('',#1007,#477);
#386=LINE('',#1009,#478);
#387=LINE('',#1010,#479);
#388=LINE('',#1012,#480);
#389=LINE('',#1014,#481);
#390=LINE('',#1016,#482);
#391=LINE('',#1018,#483);
#392=LINE('',#1020,#484);
#393=LINE('',#1021,#485);
#394=LINE('',#1022,#486);
#395=LINE('',#1024,#487);
#396=LINE('',#1026,#488);
#397=LINE('',#1028,#489);
#398=LINE('',#1030,#490);
#399=LINE('',#1032,#491);
#400=LINE('',#1034,#492);
#401=LINE('',#1036,#493);
#402=LINE('',#1038,#494);
#403=LINE('',#1041,#495);
#404=LINE('',#1043,#496);
#405=LINE('',#1045,#497);
#406=LINE('',#1047,#498);
#407=LINE('',#1049,#499);
#408=LINE('',#1051,#500);
#409=LINE('',#1052,#501);
#410=LINE('',#1054,#502);
#411=LINE('',#1055,#503);
#412=LINE('',#1057,#504);
#413=LINE('',#1058,#505);
#414=LINE('',#1060,#506);
#415=LINE('',#1061,#507);
#416=LINE('',#1063,#508);
#417=LINE('',#1064,#509);
#418=LINE('',#1066,#510);
#419=LINE('',#1068,#511);
#420=LINE('',#1070,#512);
#421=LINE('',#1072,#513);
#422=LINE('',#1075,#514);
#423=LINE('',#1077,#515);
#424=LINE('',#1079,#516);
#425=LINE('',#1081,#517);
#426=LINE('',#1083,#518);
#427=LINE('',#1085,#519);
#428=LINE('',#1088,#520);
#429=LINE('',#1090,#521);
#430=LINE('',#1092,#522);
#431=LINE('',#1094,#523);
#432=LINE('',#1096,#524);
#433=LINE('',#1098,#525);
#434=VECTOR('',#743,1.);
#435=VECTOR('',#744,1.);
#436=VECTOR('',#745,1.);
#437=VECTOR('',#746,1.);
#438=VECTOR('',#747,1.);
#439=VECTOR('',#748,1.);
#440=VECTOR('',#749,1.);
#441=VECTOR('',#752,1.);
#442=VECTOR('',#753,1.);
#443=VECTOR('',#754,1.);
#444=VECTOR('',#757,1.);
#445=VECTOR('',#758,1.);
#446=VECTOR('',#759,1.);
#447=VECTOR('',#762,1.);
#448=VECTOR('',#763,1.);
#449=VECTOR('',#764,1.);
#450=VECTOR('',#765,1.);
#451=VECTOR('',#766,1.);
#452=VECTOR('',#767,1.);
#453=VECTOR('',#768,1.);
#454=VECTOR('',#771,1.);
#455=VECTOR('',#772,1.);
#456=VECTOR('',#773,1.);
#457=VECTOR('',#776,1.);
#458=VECTOR('',#777,1.);
#459=VECTOR('',#778,1.);
#460=VECTOR('',#781,1.);
#461=VECTOR('',#782,1.);
#462=VECTOR('',#783,1.);
#463=VECTOR('',#786,1.);
#464=VECTOR('',#787,1.);
#465=VECTOR('',#788,1.);
#466=VECTOR('',#789,1.);
#467=VECTOR('',#790,1.);
#468=VECTOR('',#791,1.);
#469=VECTOR('',#792,1.);
#470=VECTOR('',#795,1.);
#471=VECTOR('',#796,1.);
#472=VECTOR('',#797,1.);
#473=VECTOR('',#798,1.);
#474=VECTOR('',#801,1.);
#475=VECTOR('',#802,1.);
#476=VECTOR('',#803,1.);
#477=VECTOR('',#804,1.);
#478=VECTOR('',#805,1.);
#479=VECTOR('',#806,1.);
#480=VECTOR('',#807,1.);
#481=VECTOR('',#808,1.);
#482=VECTOR('',#809,1.);
#483=VECTOR('',#810,1.);
#484=VECTOR('',#813,1.);
#485=VECTOR('',#814,1.);
#486=VECTOR('',#815,1.);
#487=VECTOR('',#816,1.);
#488=VECTOR('',#819,1.);
#489=VECTOR('',#820,1.);
#490=VECTOR('',#823,1.);
#491=VECTOR('',#826,1.);
#492=VECTOR('',#827,1.);
#493=VECTOR('',#830,1.);
#494=VECTOR('',#833,1.);
#495=VECTOR('',#834,1.);
#496=VECTOR('',#835,1.);
#497=VECTOR('',#836,1.);
#498=VECTOR('',#837,1.);
#499=VECTOR('',#838,1.);
#500=VECTOR('',#841,1.);
#501=VECTOR('',#842,1.);
#502=VECTOR('',#845,1.);
#503=VECTOR('',#846,1.);
#504=VECTOR('',#849,1.);
#505=VECTOR('',#850,1.);
#506=VECTOR('',#853,1.);
#507=VECTOR('',#854,1.);
#508=VECTOR('',#857,1.);
#509=VECTOR('',#858,1.);
#510=VECTOR('',#861,1.);
#511=VECTOR('',#864,1.);
#512=VECTOR('',#867,1.);
#513=VECTOR('',#870,1.);
#514=VECTOR('',#875,1.);
#515=VECTOR('',#878,1.);
#516=VECTOR('',#881,1.);
#517=VECTOR('',#884,1.);
#518=VECTOR('',#887,1.);
#519=VECTOR('',#890,1.);
#520=VECTOR('',#895,1.);
#521=VECTOR('',#898,1.);
#522=VECTOR('',#901,1.);
#523=VECTOR('',#904,1.);
#524=VECTOR('',#907,1.);
#525=VECTOR('',#910,1.);
#526=EDGE_LOOP('',(#12,#13,#14,#15,#16,#17,#18));
#527=EDGE_LOOP('',(#19,#20,#21));
#528=EDGE_LOOP('',(#22,#23,#24));
#529=EDGE_LOOP('',(#25,#26,#27,#28,#29,#30,#31,#32));
#530=EDGE_LOOP('',(#33,#34,#35));
#531=EDGE_LOOP('',(#36,#37,#38,#39));
#532=EDGE_LOOP('',(#40,#41,#42));
#533=EDGE_LOOP('',(#43,#44,#45,#46,#47,#48,#49,#50));
#534=EDGE_LOOP('',(#51,#52,#53,#54));
#535=EDGE_LOOP('',(#55,#56,#57,#58,#59,#60,#61,#62,#63,#64,#65,#66));
#536=EDGE_LOOP('',(#67,#68,#69,#70,#71,#72,#73));
#537=EDGE_LOOP('',(#74,#75,#76,#77));
#538=EDGE_LOOP('',(#78,#79,#80,#81));
#539=EDGE_LOOP('',(#82,#83,#84,#85));
#540=EDGE_LOOP('',(#86,#87,#88,#89));
#541=EDGE_LOOP('',(#90,#91,#92,#93,#94,#95));
#542=EDGE_LOOP('',(#96,#97,#98,#99,#100,#101));
#543=EDGE_LOOP('',(#102,#103,#104,#105,#106,#107));
#544=EDGE_LOOP('',(#108,#109,#110,#111,#112,#113));
#545=EDGE_LOOP('',(#114,#115,#116,#117,#118,#119));
#546=EDGE_LOOP('',(#120,#121,#122,#123));
#547=EDGE_LOOP('',(#124,#125,#126,#127));
#548=EDGE_LOOP('',(#128,#129,#130,#131));
#549=EDGE_LOOP('',(#132,#133,#134,#135));
#550=EDGE_LOOP('',(#136,#137,#138,#139));
#551=EDGE_LOOP('',(#140,#141,#142,#143));
#552=EDGE_LOOP('',(#144,#145,#146,#147));
#553=EDGE_LOOP('',(#148,#149,#150,#151));
#554=EDGE_LOOP('',(#152,#153,#154));
#555=EDGE_LOOP('',(#155,#156,#157,#158));
#556=EDGE_LOOP('',(#159,#160,#161,#162));
#557=EDGE_LOOP('',(#163,#164,#165));
#558=EDGE_LOOP('',(#166,#167,#168,#169));
#559=EDGE_LOOP('',(#170,#171,#172,#173));
#560=EDGE_LOOP('',(#174,#175,#176,#177));
#561=EDGE_LOOP('',(#178,#179,#180));
#562=EDGE_LOOP('',(#181,#182,#183,#184));
#563=EDGE_LOOP('',(#185,#186,#187,#188));
#564=EDGE_LOOP('',(#189,#190,#191));
#565=EDGE_LOOP('',(#192,#193,#194,#195));
#566=FACE_BOUND('',#526,.T.);
#567=FACE_BOUND('',#527,.T.);
#568=FACE_BOUND('',#528,.T.);
#569=FACE_BOUND('',#529,.T.);
#570=FACE_BOUND('',#530,.T.);
#571=FACE_BOUND('',#531,.T.);
#572=FACE_BOUND('',#532,.T.);
#573=FACE_BOUND('',#533,.T.);
#574=FACE_BOUND('',#534,.T.);
#575=FACE_BOUND('',#535,.T.);
#576=FACE_BOUND('',#536,.T.);
#577=FACE_BOUND('',#537,.T.);
#578=FACE_BOUND('',#538,.T.);
#579=FACE_BOUND('',#539,.T.);
#580=FACE_BOUND('',#540,.T.);
#581=FACE_BOUND('',#541,.T.);
#582=FACE_BOUND('',#542,.T.);
#583=FACE_BOUND('',#543,.T.);
#584=FACE_BOUND('',#544,.T.);
#585=FACE_BOUND('',#545,.T.);
#586=FACE_BOUND('',#546,.T.);
#587=FACE_BOUND('',#547,.T.);
#588=FACE_BOUND('',#548,.T.);
#589=FACE_BOUND('',#549,.T.);
#590=FACE_BOUND('',#550,.T.);
#591=FACE_BOUND('',#551,.T.);
#592=FACE_BOUND('',#552,.T.);
#593=FACE_BOUND('',#553,.T.);
#594=FACE_BOUND('',#554,.T.);
#595=FACE_BOUND('',#555,.T.);
#596=FACE_BOUND('',#556,.T.);
#597=FACE_BOUND('',#557,.T.);
#598=FACE_BOUND('',#558,.T.);
#599=FACE_BOUND('',#559,.T.);
#600=FACE_BOUND('',#560,.T.);
#601=FACE_BOUND('',#561,.T.);
#602=FACE_BOUND('',#562,.T.);
#603=FACE_BOUND('',#563,.T.);
#604=FACE_BOUND('',#564,.T.);
#605=FACE_BOUND('',#565,.T.);
#606=PLANE('',#699);
#607=PLANE('',#700);
#608=PLANE('',#701);
#609=PLANE('',#702);
#610=PLANE('',#703);
#611=PLANE('',#704);
#612=PLANE('',#705);
#613=PLANE('',#706);
#614=PLANE('',#707);
#615=PLANE('',#708);
#616=PLANE('',#709);
#617=PLANE('',#710);
#618=PLANE('',#711);
#619=PLANE('',#712);
#620=PLANE('',#713);
#621=PLANE('',#714);
#622=PLANE('',#715);
#623=PLANE('',#716);
#624=PLANE('',#717);
#625=PLANE('',#718);
#626=PLANE('',#719);
#627=PLANE('',#720);
#628=PLANE('',#721);
#629=PLANE('',#722);
#630=PLANE('',#723);
#631=PLANE('',#724);
#632=PLANE('',#725);
#633=PLANE('',#726);
#634=PLANE('',#727);
#635=PLANE('',#728);
#636=PLANE('',#729);
#637=PLANE('',#730);
#638=PLANE('',#731);
#639=PLANE('',#732);
#640=PLANE('',#733);
#641=PLANE('',#734);
#642=PLANE('',#735);
#643=PLANE('',#736);
#644=PLANE('',#737);
#645=PLANE('',#738);
#646=ADVANCED_FACE('',(#566),#606,.F.);
#647=ADVANCED_FACE('',(#567),#607,.F.);
#648=ADVANCED_FACE('',(#568),#608,.F.);
#649=ADVANCED_FACE('',(#569),#609,.F.);
#650=ADVANCED_FACE('',(#570),#610,.F.);
#651=ADVANCED_FACE('',(#571),#611,.T.);
#652=ADVANCED_FACE('',(#572),#612,.F.);
#653=ADVANCED_FACE('',(#573),#613,.T.);
#654=ADVANCED_FACE('',(#574),#614,.F.);
#655=ADVANCED_FACE('',(#575),#615,.F.);
#656=ADVANCED_FACE('',(#576),#616,.F.);
#657=ADVANCED_FACE('',(#577),#617,.T.);
#658=ADVANCED_FACE('',(#578),#618,.T.);
#659=ADVANCED_FACE('',(#579),#619,.F.);
#660=ADVANCED_FACE('',(#580),#620,.F.);
#661=ADVANCED_FACE('',(#581),#621,.T.);
#662=ADVANCED_FACE('',(#582),#622,.F.);
#663=ADVANCED_FACE('',(#583),#623,.T.);
#664=ADVANCED_FACE('',(#584),#624,.T.);
#665=ADVANCED_FACE('',(#585),#625,.F.);
#666=ADVANCED_FACE('',(#586),#626,.T.);
#667=ADVANCED_FACE('',(#587),#627,.T.);
#668=ADVANCED_FACE('',(#588),#628,.F.);
#669=ADVANCED_FACE('',(#589),#629,.T.);
#670=ADVANCED_FACE('',(#590),#630,.F.);
#671=ADVANCED_FACE('',(#591),#631,.F.);
#672=ADVANCED_FACE('',(#592),#632,.F.);
#673=ADVANCED_FACE('',(#593),#633,.T.);
#674=ADVANCED_FACE('',(#594),#634,.T.);
#675=ADVANCED_FACE('',(#595),#635,.T.);
#676=ADVANCED_FACE('',(#596),#636,.T.);
#677=ADVANCED_FACE('',(#597),#637,.T.);
#678=ADVANCED_FACE('',(#598),#638,.F.);
#679=ADVANCED_FACE('',(#599),#639,.F.);
#680=ADVANCED_FACE('',(#600),#640,.F.);
#681=ADVANCED_FACE('',(#601),#641,.T.);
#682=ADVANCED_FACE('',(#602),#642,.F.);
#683=ADVANCED_FACE('',(#603),#643,.F.);
#684=ADVANCED_FACE('',(#604),#644,.T.);
#685=ADVANCED_FACE('',(#605),#645,.F.);
#686=CLOSED_SHELL('',(#646,#647,#648,#649,#650,#651,#652,#653,#654,#655,
#656,#657,#658,#659,#660,#661,#662,#663,#664,#665,#666,#667,#668,#669,#670,
#671,#672,#673,#674,#675,#676,#677,#678,#679,#680,#681,#682,#683,#684,#685));
#687=STYLED_ITEM('',(#688),#695);
#688=PRESENTATION_STYLE_ASSIGNMENT((#689));
#689=SURFACE_STYLE_USAGE(.BOTH.,#690);
#690=SURFACE_SIDE_STYLE('',(#691));
#691=SURFACE_STYLE_FILL_AREA(#692);
#692=FILL_AREA_STYLE('',(#693));
#693=FILL_AREA_STYLE_COLOUR('',#694);
#694=COLOUR_RGB('',0.647058823529412,0.647058823529412,0.647058823529412);
#695=MANIFOLD_SOLID_BREP('Wall',#686);
#696=SHAPE_DEFINITION_REPRESENTATION(#1106,#697);
#697=SHAPE_REPRESENTATION('Wall',(#698),#1101);
#698=AXIS2_PLACEMENT_3D('',#913,#739,#740);
#699=AXIS2_PLACEMENT_3D('',#914,#741,#742);
#700=AXIS2_PLACEMENT_3D('',#929,#750,#751);
#701=AXIS2_PLACEMENT_3D('',#936,#755,#756);
#702=AXIS2_PLACEMENT_3D('',#943,#760,#761);
#703=AXIS2_PLACEMENT_3D('',#957,#769,#770);
#704=AXIS2_PLACEMENT_3D('',#964,#774,#775);
#705=AXIS2_PLACEMENT_3D('',#970,#779,#780);
#706=AXIS2_PLACEMENT_3D('',#977,#784,#785);
#707=AXIS2_PLACEMENT_3D('',#991,#793,#794);
#708=AXIS2_PLACEMENT_3D('',#1000,#799,#800);
#709=AXIS2_PLACEMENT_3D('',#1019,#811,#812);
#710=AXIS2_PLACEMENT_3D('',#1025,#817,#818);
#711=AXIS2_PLACEMENT_3D('',#1029,#821,#822);
#712=AXIS2_PLACEMENT_3D('',#1031,#824,#825);
#713=AXIS2_PLACEMENT_3D('',#1035,#828,#829);
#714=AXIS2_PLACEMENT_3D('',#1037,#831,#832);
#715=AXIS2_PLACEMENT_3D('',#1050,#839,#840);
#716=AXIS2_PLACEMENT_3D('',#1053,#843,#844);
#717=AXIS2_PLACEMENT_3D('',#1056,#847,#848);
#718=AXIS2_PLACEMENT_3D('',#1059,#851,#852);
#719=AXIS2_PLACEMENT_3D('',#1062,#855,#856);
#720=AXIS2_PLACEMENT_3D('',#1065,#859,#860);
#721=AXIS2_PLACEMENT_3D('',#1067,#862,#863);
#722=AXIS2_PLACEMENT_3D('',#1069,#865,#866);
#723=AXIS2_PLACEMENT_3D('',#1071,#868,#869);
#724=AXIS2_PLACEMENT_3D('',#1073,#871,#872);
#725=AXIS2_PLACEMENT_3D('',#1074,#873,#874);
#726=AXIS2_PLACEMENT_3D('',#1076,#876,#877);
#727=AXIS2_PLACEMENT_3D('',#1078,#879,#880);
#728=AXIS2_PLACEMENT_3D('',#1080,#882,#883);
#729=AXIS2_PLACEMENT_3D('',#1082,#885,#886);
#730=AXIS2_PLACEMENT_3D('',#1084,#888,#889);
#731=AXIS2_PLACEMENT_3D('',#1086,#891,#892);
#732=AXIS2_PLACEMENT_3D('',#1087,#893,#894);
#733=AXIS2_PLACEMENT_3D('',#1089,#896,#897);
#734=AXIS2_PLACEMENT_3D('',#1091,#899,#900);
#735=AXIS2_PLACEMENT_3D('',#1093,#902,#903);
#736=AXIS2_PLACEMENT_3D('',#1095,#905,#906);
#737=AXIS2_PLACEMENT_3D('',#1097,#908,#909);
#738=AXIS2_PLACEMENT_3D('',#1099,#911,#912);
#739=DIRECTION('',(0.,0.,1.));
#740=DIRECTION('',(1.,0.,0.));
#741=DIRECTION('',(0.,0.,1.));
#742=DIRECTION('',(1.,0.,0.));
#743=DIRECTION('',(0.,-1.,0.));
#744=DIRECTION('',(1.,0.,0.));
#745=DIRECTION('',(0.707106781186549,-0.707106781186546,0.));
#746=DIRECTION('',(-0.707106781186546,-0.707106781186549,0.));
#747=DIRECTION('',(-1.,0.,0.));
#748=DIRECTION('',(0.,-1.,0.));
#749=DIRECTION('',(0.,-1.,0.));
#750=DIRECTION('',(0.,1.,0.));
#751=DIRECTION('',(0.,0.,1.));
#752=DIRECTION('',(0.,0.,-1.));
#753=DIRECTION('',(1.,0.,0.));
#754=DIRECTION('',(0.707106781186552,0.,-0.707106781186544));
#755=DIRECTION('',(0.,-1.,0.));
#756=DIRECTION('',(0.,0.,-1.));
#757=DIRECTION('',(-0.707106781186552,0.,0.707106781186544));
#758=DIRECTION('',(-1.,0.,0.));
#759=DIRECTION('',(0.,0.,1.));
#760=DIRECTION('',(0.,1.,0.));
#761=DIRECTION('',(0.,0.,1.));
#762=DIRECTION('',(0.,0.,-1.));
#763=DIRECTION('',(-1.,0.,0.));
#764=DIRECTION('',(0.,0.,-1.));
#765=DIRECTION('',(-1.,0.,0.));
#766=DIRECTION('',(-0.707106781186552,0.,0.707106781186544));
#767=DIRECTION('',(1.,0.,0.));
#768=DIRECTION('',(0.707106781186552,0.,0.707106781186543));
#769=DIRECTION('',(0.,1.,0.));
#770=DIRECTION('',(0.,0.,1.));
#771=DIRECTION('',(-0.707106781186552,0.,-0.707106781186543));
#772=DIRECTION('',(1.,0.,0.));
#773=DIRECTION('',(0.,0.,1.));
#774=DIRECTION('',(1.,0.,0.));
#775=DIRECTION('',(0.,0.,-1.));
#776=DIRECTION('',(0.,1.,0.));
#777=DIRECTION('',(0.,0.,1.));
#778=DIRECTION('',(0.,0.,-1.));
#779=DIRECTION('',(0.,-1.,0.));
#780=DIRECTION('',(0.,0.,-1.));
#781=DIRECTION('',(0.,0.,-1.));
#782=DIRECTION('',(-1.,0.,0.));
#783=DIRECTION('',(0.707106781186552,0.,0.707106781186543));
#784=DIRECTION('',(0.,1.,0.));
#785=DIRECTION('',(0.,0.,1.));
#786=DIRECTION('',(0.,0.,-1.));
#787=DIRECTION('',(1.,0.,0.));
#788=DIRECTION('',(0.,0.,-1.));
#789=DIRECTION('',(0.707106781186552,0.,0.707106781186543));
#790=DIRECTION('',(1.,0.,0.));
#791=DIRECTION('',(-0.707106781186552,0.,0.707106781186544));
#792=DIRECTION('',(1.,0.,0.));
#793=DIRECTION('',(1.,0.,0.));
#794=DIRECTION('',(0.,0.,-1.));
#795=DIRECTION('',(0.,-1.,0.));
#796=DIRECTION('',(0.,0.,1.));
#797=DIRECTION('',(0.,-1.,0.));
#798=DIRECTION('',(0.,0.,-1.));
#799=DIRECTION('',(0.,0.,1.));
#800=DIRECTION('',(1.,0.,0.));
#801=DIRECTION('',(0.,-1.,0.));
#802=DIRECTION('',(1.,0.,0.));
#803=DIRECTION('',(0.,-1.,0.));
#804=DIRECTION('',(-1.,0.,0.));
#805=DIRECTION('',(0.,-1.,0.));
#806=DIRECTION('',(0.,-1.,0.));
#807=DIRECTION('',(-1.,0.,0.));
#808=DIRECTION('',(0.,1.,0.));
#809=DIRECTION('',(1.,0.,0.));
#810=DIRECTION('',(0.,-1.,0.));
#811=DIRECTION('',(0.,0.,1.));
#812=DIRECTION('',(1.,0.,0.));
#813=DIRECTION('',(0.,-1.,0.));
#814=DIRECTION('',(0.,-1.,0.));
#815=DIRECTION('',(0.707106781186547,-0.707106781186548,0.));
#816=DIRECTION('',(-0.707106781186548,-0.707106781186547,0.));
#817=DIRECTION('',(0.707106781186549,-0.707106781186546,0.));
#818=DIRECTION('',(0.707106781186546,0.707106781186549,0.));
#819=DIRECTION('',(0.,0.,-1.));
#820=DIRECTION('',(-0.707106781186546,-0.707106781186549,0.));
#821=DIRECTION('',(0.707106781186546,0.707106781186549,0.));
#822=DIRECTION('',(-0.707106781186549,0.707106781186546,0.));
#823=DIRECTION('',(0.707106781186549,-0.707106781186546,0.));
#824=DIRECTION('',(0.707106781186547,-0.707106781186548,0.));
#825=DIRECTION('',(0.707106781186548,0.707106781186547,0.));
#826=DIRECTION('',(0.,0.,-1.));
#827=DIRECTION('',(0.707106781186548,0.707106781186547,0.));
#828=DIRECTION('',(0.707106781186548,0.707106781186547,0.));
#829=DIRECTION('',(-0.707106781186547,0.707106781186548,0.));
#830=DIRECTION('',(-0.707106781186547,0.707106781186548,0.));
#831=DIRECTION('',(0.,0.,1.));
#832=DIRECTION('',(1.,0.,0.));
#833=DIRECTION('',(-0.707106781186549,0.707106781186546,0.));
#834=DIRECTION('',(-1.,0.,0.));
#835=DIRECTION('',(-0.707106781186548,-0.707106781186547,0.));
#836=DIRECTION('',(0.707106781186547,-0.707106781186548,0.));
#837=DIRECTION('',(1.,0.,0.));
#838=DIRECTION('',(0.707106781186546,0.707106781186549,0.));
#839=DIRECTION('',(0.707106781186544,0.,0.707106781186552));
#840=DIRECTION('',(0.707106781186552,0.,-0.707106781186544));
#841=DIRECTION('',(0.577350269189634,-0.577350269189617,-0.577350269189627));
#842=DIRECTION('',(0.577350269189631,0.577350269189621,-0.577350269189625));
#843=DIRECTION('',(0.707106781186543,0.,-0.707106781186552));
#844=DIRECTION('',(-0.707106781186552,0.,-0.707106781186543));
#845=DIRECTION('',(0.577350269189634,0.577350269189617,0.577350269189627));
#846=DIRECTION('',(-0.577350269189633,0.577350269189619,-0.577350269189626));
#847=DIRECTION('',(0.707106781186543,0.,-0.707106781186552));
#848=DIRECTION('',(-0.707106781186552,0.,-0.707106781186543));
#849=DIRECTION('',(0.577350269189633,0.577350269189619,0.577350269189626));
#850=DIRECTION('',(-0.577350269189634,0.577350269189617,-0.577350269189627));
#851=DIRECTION('',(0.707106781186544,0.,0.707106781186552));
#852=DIRECTION('',(0.707106781186552,0.,-0.707106781186544));
#853=DIRECTION('',(-0.577350269189631,0.577350269189621,0.577350269189625));
#854=DIRECTION('',(-0.577350269189634,-0.577350269189617,0.577350269189627));
#855=DIRECTION('',(0.,-0.707106781186554,0.707106781186541));
#856=DIRECTION('',(1.,0.,0.));
#857=DIRECTION('',(0.281084637714838,-0.678598344545837,-0.678598344545849));
#858=DIRECTION('',(0.28108463771483,0.678598344545839,0.678598344545851));
#859=DIRECTION('',(-0.5,-0.5,0.707106781186546));
#860=DIRECTION('',(-0.707106781186547,0.707106781186548,0.));
#861=DIRECTION('',(0.816496580927725,-8.97382586978995E-16,0.577350269189627));
#862=DIRECTION('',(-0.5,0.5,-0.707106781186549));
#863=DIRECTION('',(-0.707106781186546,-0.707106781186549,0.));
#864=DIRECTION('',(-0.816496580927729,-8.42898644198132E-15,0.577350269189621));
#865=DIRECTION('',(-0.5,0.5,0.707106781186546));
#866=DIRECTION('',(0.707106781186548,0.707106781186547,0.));
#867=DIRECTION('',(0.281084637714829,-0.678598344545839,0.678598344545851));
#868=DIRECTION('',(-0.499999999999994,-0.5,-0.707106781186555));
#869=DIRECTION('',(0.707106781186549,-0.707106781186546,0.));
#870=DIRECTION('',(-0.281084637714851,-0.678598344545835,0.678598344545847));
#871=DIRECTION('',(0.,-0.707106781186554,-0.707106781186541));
#872=DIRECTION('',(1.,0.,0.));
#873=DIRECTION('',(0.,0.707106781186554,0.707106781186541));
#874=DIRECTION('',(1.,0.,0.));
#875=DIRECTION('',(9.61481343191791E-17,-0.707106781186541,0.707106781186554));
#876=DIRECTION('',(0.707106781186539,-0.707106781186556,0.));
#877=DIRECTION('',(0.,0.,1.));
#878=DIRECTION('',(-0.707106781186556,-0.707106781186539,1.19609907444044E-16));
#879=DIRECTION('',(0.57735026918962,-0.577350269189634,-0.577350269189624));
#880=DIRECTION('',(0.,0.707106781186541,-0.707106781186554));
#881=DIRECTION('',(0.70710678118655,-1.23903709934806E-16,0.707106781186545));
#882=DIRECTION('',(0.707106781186546,0.,-0.70710678118655));
#883=DIRECTION('',(0.,1.,0.));
#884=DIRECTION('',(-0.70710678118655,-1.23903709934806E-16,-0.707106781186545));
#885=DIRECTION('',(0.707106781186539,0.707106781186556,0.));
#886=DIRECTION('',(0.,0.,1.));
#887=DIRECTION('',(0.707106781186556,-0.707106781186539,-1.19609907444044E-16));
#888=DIRECTION('',(0.57735026918962,0.577350269189634,-0.577350269189624));
#889=DIRECTION('',(0.,0.707106781186541,0.707106781186554));
#890=DIRECTION('',(-9.61481343191791E-17,-0.707106781186541,-0.707106781186554));
#891=DIRECTION('',(0.,-0.707106781186554,0.707106781186541));
#892=DIRECTION('',(-1.,0.,0.));
#893=DIRECTION('',(0.,-0.707106781186554,0.707106781186541));
#894=DIRECTION('',(-1.,0.,0.));
#895=DIRECTION('',(-8.26873955144941E-15,0.707106781186541,0.707106781186554));
#896=DIRECTION('',(0.707106781186541,-0.707106781186554,0.));
#897=DIRECTION('',(0.,0.,-1.));
#898=DIRECTION('',(-0.707106781186554,-0.707106781186541,9.18543318284141E-17));
#899=DIRECTION('',(-0.57735026918962,0.57735026918963,-0.577350269189627));
#900=DIRECTION('',(0.,0.707106781186546,0.70710678118655));
#901=DIRECTION('',(0.707106781186552,-9.61481343191775E-17,-0.707106781186544));
#902=DIRECTION('',(0.707106781186544,0.,0.707106781186552));
#903=DIRECTION('',(0.,-1.,0.));
#904=DIRECTION('',(-0.707106781186552,-9.61481343191775E-17,0.707106781186544));
#905=DIRECTION('',(0.707106781186541,0.707106781186554,0.));
#906=DIRECTION('',(0.,0.,-1.));
#907=DIRECTION('',(0.707106781186554,-0.707106781186541,-9.18543318284141E-17));
#908=DIRECTION('',(-0.57735026918962,-0.57735026918963,-0.577350269189627));
#909=DIRECTION('',(0.,0.707106781186546,-0.70710678118655));
#910=DIRECTION('',(8.26873955144941E-15,0.707106781186541,-0.707106781186554));
#911=DIRECTION('',(0.,0.707106781186554,0.707106781186541));
#912=DIRECTION('',(1.,0.,0.));
#913=CARTESIAN_POINT('',(0.,0.,0.));
#914=CARTESIAN_POINT('',(0.0205,-0.213,0.0075));
#915=CARTESIAN_POINT('',(0.03485,-0.209998,0.0075));
#916=CARTESIAN_POINT('',(0.03485,-0.21,0.0075));
#917=CARTESIAN_POINT('',(0.03485,-0.21275,0.0075));
#918=CARTESIAN_POINT('',(0.0205,-0.21,0.0075));
#919=CARTESIAN_POINT('',(0.034893933982822,-0.21,0.0075));
#920=CARTESIAN_POINT('',(0.036393933982822,-0.2115,0.0075));
#921=CARTESIAN_POINT('',(0.0378939339828221,-0.213,0.0075));
#922=CARTESIAN_POINT('',(0.0363939339828221,-0.2145,0.0075));
#923=CARTESIAN_POINT('',(0.0348939339828221,-0.216,0.0075));
#924=CARTESIAN_POINT('',(0.0205,-0.216,0.0075));
#925=CARTESIAN_POINT('',(0.03485,-0.216,0.0075));
#926=CARTESIAN_POINT('',(0.03485,-0.209998,0.0075));
#927=CARTESIAN_POINT('',(0.03485,-0.21325,0.0075));
#928=CARTESIAN_POINT('',(0.03485,-0.213,0.0075));
#929=CARTESIAN_POINT('',(0.0099,-0.21385,0.007502));
#930=CARTESIAN_POINT('',(0.00675,-0.21385,0.007502));
#931=CARTESIAN_POINT('',(0.00675,-0.21385,0.0069));
#932=CARTESIAN_POINT('',(0.00675,-0.21385,0.0006));
#933=CARTESIAN_POINT('',(0.0099,-0.21385,0.0006));
#934=CARTESIAN_POINT('',(0.01305,-0.21385,0.0006));
#935=CARTESIAN_POINT('',(0.008024,-0.21385,0.005626));
#936=CARTESIAN_POINT('',(0.0099,-0.21215,0.007502));
#937=CARTESIAN_POINT('',(0.008024,-0.21215,0.005626));
#938=CARTESIAN_POINT('',(0.01305,-0.21215,0.0006));
#939=CARTESIAN_POINT('',(0.00675,-0.21215,0.0069));
#940=CARTESIAN_POINT('',(0.0099,-0.21215,0.0006));
#941=CARTESIAN_POINT('',(0.00675,-0.21215,0.0006));
#942=CARTESIAN_POINT('',(0.00675,-0.21215,0.007502));
#943=CARTESIAN_POINT('',(0.108,-0.216,0.007502));
#944=CARTESIAN_POINT('',(0.0348939339828221,-0.216,0.0095));
#945=CARTESIAN_POINT('',(0.0348939339828221,-0.216,0.0089));
#946=CARTESIAN_POINT('',(0.00610606601717799,-0.216,0.0089));
#947=CARTESIAN_POINT('',(0.00610606601717799,-0.216,0.0089));
#948=CARTESIAN_POINT('',(0.00610606601717799,-0.216,0.0095));
#949=CARTESIAN_POINT('',(0.00610606601717799,-0.216,0.0075));
#950=CARTESIAN_POINT('',(0.0205,-0.216,0.0075));
#951=CARTESIAN_POINT('',(0.00615,-0.216,0.0075));
#952=CARTESIAN_POINT('',(0.0099,-0.216,0.00375));
#953=CARTESIAN_POINT('',(0.01365,-0.216,0.));
#954=CARTESIAN_POINT('',(0.108,-0.216,0.));
#955=CARTESIAN_POINT('',(0.02735,-0.216,0.));
#956=CARTESIAN_POINT('',(0.0311,-0.216,0.00375));
#957=CARTESIAN_POINT('',(0.0311,-0.21385,0.007502));
#958=CARTESIAN_POINT('',(0.032976,-0.21385,0.005626));
#959=CARTESIAN_POINT('',(0.03425,-0.21385,0.00689999999999989));
#960=CARTESIAN_POINT('',(0.02795,-0.21385,0.0006));
#961=CARTESIAN_POINT('',(0.0311,-0.21385,0.0006));
#962=CARTESIAN_POINT('',(0.03425,-0.21385,0.0006));
#963=CARTESIAN_POINT('',(0.03425,-0.21385,0.0075));
#964=CARTESIAN_POINT('',(0.03485,-0.213,0.007502));
#965=CARTESIAN_POINT('',(0.03485,-0.21215,0.0006));
#966=CARTESIAN_POINT('',(0.03485,-0.21325,0.0006));
#967=CARTESIAN_POINT('',(0.03485,-0.21275,0.0006));
#968=CARTESIAN_POINT('',(0.03485,-0.21275,0.0075));
#969=CARTESIAN_POINT('',(0.03485,-0.21325,0.));
#970=CARTESIAN_POINT('',(0.0311,-0.21215,0.007502));
#971=CARTESIAN_POINT('',(0.03425,-0.21215,0.));
#972=CARTESIAN_POINT('',(0.03425,-0.21215,0.00689999999999989));
#973=CARTESIAN_POINT('',(0.03425,-0.21215,0.0006));
#974=CARTESIAN_POINT('',(0.0311,-0.21215,0.0006));
#975=CARTESIAN_POINT('',(0.02795,-0.21215,0.0006));
#976=CARTESIAN_POINT('',(0.032976,-0.21215,0.005626));
#977=CARTESIAN_POINT('',(0.0205,-0.21,0.007502));
#978=CARTESIAN_POINT('',(0.006106066017178,-0.21,0.0095));
#979=CARTESIAN_POINT('',(0.006106066017178,-0.21,0.0089));
#980=CARTESIAN_POINT('',(0.006106066017178,-0.21,0.0075));
#981=CARTESIAN_POINT('',(0.0205,-0.21,0.0089));
#982=CARTESIAN_POINT('',(0.034893933982822,-0.21,0.0089));
#983=CARTESIAN_POINT('',(0.034893933982822,-0.21,0.0095));
#984=CARTESIAN_POINT('',(0.0311,-0.21,0.00375));
#985=CARTESIAN_POINT('',(0.02735,-0.21,0.));
#986=CARTESIAN_POINT('',(0.0205,-0.21,0.));
#987=CARTESIAN_POINT('',(0.01365,-0.21,0.));
#988=CARTESIAN_POINT('',(0.0099,-0.21,0.00375));
#989=CARTESIAN_POINT('',(0.00615,-0.21,0.0075));
#990=CARTESIAN_POINT('',(0.0205,-0.21,0.0075));
#991=CARTESIAN_POINT('',(0.00615,-0.213,0.007502));
#992=CARTESIAN_POINT('',(0.00615,-0.213,0.0006));
#993=CARTESIAN_POINT('',(0.00615,-0.21275,0.0006));
#994=CARTESIAN_POINT('',(0.00615,-0.21325,0.0006));
#995=CARTESIAN_POINT('',(0.00615,-0.21325,0.007502));
#996=CARTESIAN_POINT('',(0.00615,-0.21325,0.0075));
#997=CARTESIAN_POINT('',(0.00615,-0.213,0.0075));
#998=CARTESIAN_POINT('',(0.00615,-0.21275,0.0075));
#999=CARTESIAN_POINT('',(0.00615,-0.21275,0.007502));
#1000=CARTESIAN_POINT('',(0.108,-0.108,0.));
#1001=CARTESIAN_POINT('',(0.02735,-0.211075,0.));
#1002=CARTESIAN_POINT('',(0.02735,-0.21275,0.));
#1003=CARTESIAN_POINT('',(0.108,-0.21275,0.));
#1004=CARTESIAN_POINT('',(0.03425,-0.21275,0.));
#1005=CARTESIAN_POINT('',(0.03425,-0.21385,0.));
#1006=CARTESIAN_POINT('',(0.03425,-0.21325,0.));
#1007=CARTESIAN_POINT('',(0.108,-0.21325,0.));
#1008=CARTESIAN_POINT('',(0.02735,-0.21325,0.));
#1009=CARTESIAN_POINT('',(0.02735,-0.214925,0.));
#1010=CARTESIAN_POINT('',(0.01365,-0.214925,0.));
#1011=CARTESIAN_POINT('',(0.01365,-0.21325,0.));
#1012=CARTESIAN_POINT('',(0.108,-0.21325,0.));
#1013=CARTESIAN_POINT('',(0.00675,-0.21325,0.));
#1014=CARTESIAN_POINT('',(0.00675,-0.108,0.));
#1015=CARTESIAN_POINT('',(0.00675,-0.21275,0.));
#1016=CARTESIAN_POINT('',(0.108,-0.21275,0.));
#1017=CARTESIAN_POINT('',(0.01365,-0.21275,0.));
#1018=CARTESIAN_POINT('',(0.01365,-0.211075,0.));
#1019=CARTESIAN_POINT('',(0.0205,-0.213,0.0075));
#1020=CARTESIAN_POINT('',(0.00615,-0.209998,0.0075));
#1021=CARTESIAN_POINT('',(0.00615,-0.209998,0.0075));
#1022=CARTESIAN_POINT('',(0.00460606601717799,-0.2145,0.0075));
#1023=CARTESIAN_POINT('',(0.00310606601717799,-0.213,0.0075));
#1024=CARTESIAN_POINT('',(0.00460606601717799,-0.2115,0.0075));
#1025=CARTESIAN_POINT('',(0.0363939339828221,-0.2145,0.0095));
#1026=CARTESIAN_POINT('',(0.0378939339828221,-0.213,0.0095));
#1027=CARTESIAN_POINT('',(0.0378939339828221,-0.213,0.0089));
#1028=CARTESIAN_POINT('',(0.0363939339828221,-0.2145,0.0089));
#1029=CARTESIAN_POINT('',(0.036393933982822,-0.2115,0.0095));
#1030=CARTESIAN_POINT('',(0.036393933982822,-0.2115,0.0089));
#1031=CARTESIAN_POINT('',(0.00460606601717799,-0.2115,0.0095));
#1032=CARTESIAN_POINT('',(0.00310606601717799,-0.213,0.0095));
#1033=CARTESIAN_POINT('',(0.00310606601717799,-0.213,0.0089));
#1034=CARTESIAN_POINT('',(0.006106066017178,-0.21,0.0089));
#1035=CARTESIAN_POINT('',(0.00460606601717799,-0.2145,0.0095));
#1036=CARTESIAN_POINT('',(0.00310606601717799,-0.213,0.0089));
#1037=CARTESIAN_POINT('',(0.0205,-0.213,0.0095));
#1038=CARTESIAN_POINT('',(0.028772702922699,-0.204727297077301,0.0095));
#1039=CARTESIAN_POINT('',(0.0370454058453982,-0.213,0.0095));
#1040=CARTESIAN_POINT('',(0.0346454058453982,-0.2106,0.0095));
#1041=CARTESIAN_POINT('',(0.0205,-0.2106,0.0095));
#1042=CARTESIAN_POINT('',(0.00635459415460187,-0.2106,0.0095));
#1043=CARTESIAN_POINT('',(0.00353033008588991,-0.213424264068712,0.0095));
#1044=CARTESIAN_POINT('',(0.00395459415460185,-0.213,0.0095));
#1045=CARTESIAN_POINT('',(0.00653033008588991,-0.215575735931288,0.0095));
#1046=CARTESIAN_POINT('',(0.00635459415460186,-0.2154,0.0095));
#1047=CARTESIAN_POINT('',(0.0348939339828221,-0.2154,0.0095));
#1048=CARTESIAN_POINT('',(0.0346454058453982,-0.2154,0.0095));
#1049=CARTESIAN_POINT('',(0.0287727029226992,-0.221272702922699,0.0095));
#1050=CARTESIAN_POINT('',(0.0099,-0.209998,0.00375));
#1051=CARTESIAN_POINT('',(0.0102326666666666,-0.209332666666667,0.00341733333333336));
#1052=CARTESIAN_POINT('',(0.00956733333333335,-0.209332666666667,0.00408266666666663));
#1053=CARTESIAN_POINT('',(0.0311,-0.209998,0.00375));
#1054=CARTESIAN_POINT('',(0.029,-0.2111,0.00165));
#1055=CARTESIAN_POINT('',(0.0344506666666667,-0.212350666666667,0.0071006666666666));
#1056=CARTESIAN_POINT('',(0.0311,-0.209998,0.00375));
#1057=CARTESIAN_POINT('',(0.0348506666666667,-0.213249333333334,0.00750066666666659));
#1058=CARTESIAN_POINT('',(0.029,-0.2149,0.00165));
#1059=CARTESIAN_POINT('',(0.0099,-0.209998,0.00375));
#1060=CARTESIAN_POINT('',(0.007566,-0.214666,0.006084));
#1061=CARTESIAN_POINT('',(0.012234,-0.214666,0.00141600000000005));
#1062=CARTESIAN_POINT('',(0.108,-0.216,0.0089));
#1063=CARTESIAN_POINT('',(0.04066993997737,-0.229944512008385,-0.00504451200838503));
#1064=CARTESIAN_POINT('',(0.00569840771543178,-0.21698417420089,0.00791582579911034));
#1065=CARTESIAN_POINT('',(0.0122272970773009,-0.221272702922699,0.0095));
#1066=CARTESIAN_POINT('',(0.00946972943640124,-0.213,0.0133997895569215));
#1067=CARTESIAN_POINT('',(0.0363939339828221,-0.2145,0.0089));
#1068=CARTESIAN_POINT('',(0.036893933982822,-0.213,0.00960710678118654));
#1069=CARTESIAN_POINT('',(0.012227297077301,-0.204727297077301,0.0095));
#1070=CARTESIAN_POINT('',(0.00569840771543179,-0.20901582579911,0.00791582579911033));
#1071=CARTESIAN_POINT('',(0.036393933982822,-0.2115,0.0089));
#1072=CARTESIAN_POINT('',(0.0347263314884151,-0.210404628215084,0.00930462821508467));
#1073=CARTESIAN_POINT('',(0.0205,-0.21,0.0089));
#1074=CARTESIAN_POINT('',(0.0311,-0.21385,0.0006));
#1075=CARTESIAN_POINT('',(0.03425,-0.21325,-3.8332335417084E-20));
#1076=CARTESIAN_POINT('',(0.03485,-0.21325,0.007502));
#1077=CARTESIAN_POINT('',(0.03455,-0.21355,0.0006));
#1078=CARTESIAN_POINT('',(0.03425,-0.21325,0.));
#1079=CARTESIAN_POINT('',(0.03425,-0.21325,0.));
#1080=CARTESIAN_POINT('',(0.03425,-0.108,0.));
#1081=CARTESIAN_POINT('',(0.03425,-0.21275,0.));
#1082=CARTESIAN_POINT('',(0.03425,-0.21215,0.007502));
#1083=CARTESIAN_POINT('',(0.03455,-0.21245,0.0006));
#1084=CARTESIAN_POINT('',(0.03425,-0.21275,0.));
#1085=CARTESIAN_POINT('',(0.03425,-0.21275,-3.8332335417084E-20));
#1086=CARTESIAN_POINT('',(0.0311,-0.21215,0.0006));
#1087=CARTESIAN_POINT('',(0.0099,-0.21215,0.0006));
#1088=CARTESIAN_POINT('',(0.00675,-0.21275,-3.83323354170836E-20));
#1089=CARTESIAN_POINT('',(0.00615,-0.21275,0.007502));
#1090=CARTESIAN_POINT('',(0.00645,-0.21245,0.0006));
#1091=CARTESIAN_POINT('',(0.00675,-0.21275,0.));
#1092=CARTESIAN_POINT('',(0.00675,-0.21275,-3.83323354170846E-20));
#1093=CARTESIAN_POINT('',(0.00615,-0.213,0.0006));
#1094=CARTESIAN_POINT('',(0.00675,-0.21325,-3.83323354170846E-20));
#1095=CARTESIAN_POINT('',(0.00675,-0.21385,0.007502));
#1096=CARTESIAN_POINT('',(0.00645,-0.21355,0.0006));
#1097=CARTESIAN_POINT('',(0.00675,-0.21325,0.));
#1098=CARTESIAN_POINT('',(0.00675,-0.21325,-3.83323354170836E-20));
#1099=CARTESIAN_POINT('',(0.0099,-0.21385,0.0006));
#1100=MECHANICAL_DESIGN_GEOMETRIC_PRESENTATION_REPRESENTATION('',(#687),
#1101);
#1101=(
GEOMETRIC_REPRESENTATION_CONTEXT(3)
GLOBAL_UNCERTAINTY_ASSIGNED_CONTEXT((#1102))
GLOBAL_UNIT_ASSIGNED_CONTEXT((#1105,#1104,#1103))
REPRESENTATION_CONTEXT('Wall','TOP_LEVEL_ASSEMBLY_PART')
);
#1102=UNCERTAINTY_MEASURE_WITH_UNIT(LENGTH_MEASURE(5.E-6),#1105,
'DISTANCE_ACCURACY_VALUE','Maximum Tolerance applied to model');
#1103=(
NAMED_UNIT(*)
SI_UNIT($,.STERADIAN.)
SOLID_ANGLE_UNIT()
);
#1104=(
NAMED_UNIT(*)
PLANE_ANGLE_UNIT()
SI_UNIT($,.RADIAN.)
);
#1105=(
LENGTH_UNIT()
NAMED_UNIT(*)
SI_UNIT($,.METRE.)
);
#1106=PRODUCT_DEFINITION_SHAPE('','',#1107);
#1107=PRODUCT_DEFINITION('','',#1109,#1108);
#1108=PRODUCT_DEFINITION_CONTEXT('',#1115,'design');
#1109=PRODUCT_DEFINITION_FORMATION_WITH_SPECIFIED_SOURCE('','',#1111,
 .NOT_KNOWN.);
#1110=PRODUCT_RELATED_PRODUCT_CATEGORY('','',(#1111));
#1111=PRODUCT('Wall','Wall','Wall',(#1113));
#1112=PRODUCT_CATEGORY('','');
#1113=PRODUCT_CONTEXT('',#1115,'mechanical');
#1114=APPLICATION_PROTOCOL_DEFINITION('international standard',
'ap242_managed_model_based_3d_engineering',2011,#1115);
#1115=APPLICATION_CONTEXT('managed model based 3d engineering');
ENDSEC;
END-ISO-10303-21;
