ISO-10303-21;
HEADER;
/* Generated by software containing ST-Developer
 * from STEP Tools, Inc. (www.steptools.com) 
 */
/* OPTION: using custom renumber hook */

FILE_DESCRIPTION(
/* description */ ('STEP AP242',
'CAx-IF Rec.Pracs.---Representation and Presentation of Product Manufa
cturing Information (PMI)---4.0---2014-10-13',
'CAx-IF Rec.Pracs.---3D Tessellated Geometry---0.4---2014-09-14','2;1'),

/* implementation_level */ '2;1');

FILE_NAME(
/* name */ '65f4cdfbe64d9970a3acb391',
/* time_stamp */ '2024-03-15T22:38:52Z',
/* author */ (''),
/* organization */ (''),
/* preprocessor_version */ 'ST-DEVELOPER v19.4',
/* originating_system */ '  ',
/* authorisation */ '  ');

FILE_SCHEMA (('AP242_MANAGED_MODEL_BASED_3D_ENGINEERING_MIM_LF { 1 0 10303 442 1 1 4 }'));
ENDSEC;

DATA;
#10=SHAPE_REPRESENTATION_RELATIONSHIP('','',#481,#11);
#11=ADVANCED_BREP_SHAPE_REPRESENTATION('',(#479),#819);
#12=CONICAL_SURFACE('',#518,0.00275,0.982793723247328);
#13=CONICAL_SURFACE('',#521,0.00275,0.982793723247329);
#14=CONICAL_SURFACE('',#522,0.00275,0.982793723247328);
#15=CONICAL_SURFACE('',#525,0.00275,0.982793723247329);
#16=CIRCLE('',#485,0.005);
#17=CIRCLE('',#486,0.005);
#18=CIRCLE('',#489,0.005);
#19=CIRCLE('',#490,0.005);
#20=CIRCLE('',#493,0.005);
#21=CIRCLE('',#494,0.005);
#22=CIRCLE('',#497,0.005);
#23=CIRCLE('',#498,0.005);
#24=CIRCLE('',#500,0.00275);
#25=CIRCLE('',#501,0.00275);
#26=CIRCLE('',#502,0.00275);
#27=CIRCLE('',#503,0.00275);
#28=CIRCLE('',#504,0.0015);
#29=CIRCLE('',#505,0.0015);
#30=CIRCLE('',#507,0.00195);
#31=CIRCLE('',#508,0.00195);
#32=CIRCLE('',#509,0.00195);
#33=CIRCLE('',#510,0.00195);
#34=CIRCLE('',#512,0.0015);
#35=CIRCLE('',#515,0.0015);
#36=CIRCLE('',#527,0.00195);
#37=CIRCLE('',#530,0.00195);
#38=CIRCLE('',#533,0.00195);
#39=CIRCLE('',#536,0.00195);
#40=CYLINDRICAL_SURFACE('',#484,0.005);
#41=CYLINDRICAL_SURFACE('',#488,0.005);
#42=CYLINDRICAL_SURFACE('',#492,0.005);
#43=CYLINDRICAL_SURFACE('',#496,0.005);
#44=CYLINDRICAL_SURFACE('',#511,0.0015);
#45=CYLINDRICAL_SURFACE('',#514,0.0015);
#46=CYLINDRICAL_SURFACE('',#526,0.00195);
#47=CYLINDRICAL_SURFACE('',#529,0.00195);
#48=CYLINDRICAL_SURFACE('',#532,0.00195);
#49=CYLINDRICAL_SURFACE('',#535,0.00195);
#50=ORIENTED_EDGE('',*,*,#170,.F.);
#51=ORIENTED_EDGE('',*,*,#171,.T.);
#52=ORIENTED_EDGE('',*,*,#172,.T.);
#53=ORIENTED_EDGE('',*,*,#173,.F.);
#54=ORIENTED_EDGE('',*,*,#174,.F.);
#55=ORIENTED_EDGE('',*,*,#175,.T.);
#56=ORIENTED_EDGE('',*,*,#170,.T.);
#57=ORIENTED_EDGE('',*,*,#176,.T.);
#58=ORIENTED_EDGE('',*,*,#177,.F.);
#59=ORIENTED_EDGE('',*,*,#178,.T.);
#60=ORIENTED_EDGE('',*,*,#174,.T.);
#61=ORIENTED_EDGE('',*,*,#179,.F.);
#62=ORIENTED_EDGE('',*,*,#180,.F.);
#63=ORIENTED_EDGE('',*,*,#181,.T.);
#64=ORIENTED_EDGE('',*,*,#177,.T.);
#65=ORIENTED_EDGE('',*,*,#182,.T.);
#66=ORIENTED_EDGE('',*,*,#183,.F.);
#67=ORIENTED_EDGE('',*,*,#184,.T.);
#68=ORIENTED_EDGE('',*,*,#180,.T.);
#69=ORIENTED_EDGE('',*,*,#185,.T.);
#70=ORIENTED_EDGE('',*,*,#186,.F.);
#71=ORIENTED_EDGE('',*,*,#187,.T.);
#72=ORIENTED_EDGE('',*,*,#183,.T.);
#73=ORIENTED_EDGE('',*,*,#188,.T.);
#74=ORIENTED_EDGE('',*,*,#189,.F.);
#75=ORIENTED_EDGE('',*,*,#190,.T.);
#76=ORIENTED_EDGE('',*,*,#186,.T.);
#77=ORIENTED_EDGE('',*,*,#191,.T.);
#78=ORIENTED_EDGE('',*,*,#172,.F.);
#79=ORIENTED_EDGE('',*,*,#192,.T.);
#80=ORIENTED_EDGE('',*,*,#189,.T.);
#81=ORIENTED_EDGE('',*,*,#193,.T.);
#82=ORIENTED_EDGE('',*,*,#194,.T.);
#83=ORIENTED_EDGE('',*,*,#195,.T.);
#84=ORIENTED_EDGE('',*,*,#196,.T.);
#85=ORIENTED_EDGE('',*,*,#197,.T.);
#86=ORIENTED_EDGE('',*,*,#198,.T.);
#87=ORIENTED_EDGE('',*,*,#199,.T.);
#88=ORIENTED_EDGE('',*,*,#200,.T.);
#89=ORIENTED_EDGE('',*,*,#201,.T.);
#90=ORIENTED_EDGE('',*,*,#202,.F.);
#91=ORIENTED_EDGE('',*,*,#203,.T.);
#92=ORIENTED_EDGE('',*,*,#204,.T.);
#93=ORIENTED_EDGE('',*,*,#205,.F.);
#94=ORIENTED_EDGE('',*,*,#206,.F.);
#95=ORIENTED_EDGE('',*,*,#207,.F.);
#96=ORIENTED_EDGE('',*,*,#208,.F.);
#97=ORIENTED_EDGE('',*,*,#209,.F.);
#98=ORIENTED_EDGE('',*,*,#173,.T.);
#99=ORIENTED_EDGE('',*,*,#193,.F.);
#100=ORIENTED_EDGE('',*,*,#191,.F.);
#101=ORIENTED_EDGE('',*,*,#188,.F.);
#102=ORIENTED_EDGE('',*,*,#185,.F.);
#103=ORIENTED_EDGE('',*,*,#182,.F.);
#104=ORIENTED_EDGE('',*,*,#179,.T.);
#105=ORIENTED_EDGE('',*,*,#176,.F.);
#106=ORIENTED_EDGE('',*,*,#202,.T.);
#107=ORIENTED_EDGE('',*,*,#210,.F.);
#108=ORIENTED_EDGE('',*,*,#211,.F.);
#109=ORIENTED_EDGE('',*,*,#212,.T.);
#110=ORIENTED_EDGE('',*,*,#205,.T.);
#111=ORIENTED_EDGE('',*,*,#213,.F.);
#112=ORIENTED_EDGE('',*,*,#214,.F.);
#113=ORIENTED_EDGE('',*,*,#210,.T.);
#114=ORIENTED_EDGE('',*,*,#204,.F.);
#115=ORIENTED_EDGE('',*,*,#215,.F.);
#116=ORIENTED_EDGE('',*,*,#216,.T.);
#117=ORIENTED_EDGE('',*,*,#213,.T.);
#118=ORIENTED_EDGE('',*,*,#203,.F.);
#119=ORIENTED_EDGE('',*,*,#212,.F.);
#120=ORIENTED_EDGE('',*,*,#217,.T.);
#121=ORIENTED_EDGE('',*,*,#215,.T.);
#122=ORIENTED_EDGE('',*,*,#211,.T.);
#123=ORIENTED_EDGE('',*,*,#214,.T.);
#124=ORIENTED_EDGE('',*,*,#216,.F.);
#125=ORIENTED_EDGE('',*,*,#217,.F.);
#126=ORIENTED_EDGE('',*,*,#218,.F.);
#127=ORIENTED_EDGE('',*,*,#175,.F.);
#128=ORIENTED_EDGE('',*,*,#219,.F.);
#129=ORIENTED_EDGE('',*,*,#199,.F.);
#130=ORIENTED_EDGE('',*,*,#219,.T.);
#131=ORIENTED_EDGE('',*,*,#178,.F.);
#132=ORIENTED_EDGE('',*,*,#220,.F.);
#133=ORIENTED_EDGE('',*,*,#200,.F.);
#134=ORIENTED_EDGE('',*,*,#218,.T.);
#135=ORIENTED_EDGE('',*,*,#198,.F.);
#136=ORIENTED_EDGE('',*,*,#221,.F.);
#137=ORIENTED_EDGE('',*,*,#171,.F.);
#138=ORIENTED_EDGE('',*,*,#220,.T.);
#139=ORIENTED_EDGE('',*,*,#181,.F.);
#140=ORIENTED_EDGE('',*,*,#222,.F.);
#141=ORIENTED_EDGE('',*,*,#201,.F.);
#142=ORIENTED_EDGE('',*,*,#221,.T.);
#143=ORIENTED_EDGE('',*,*,#197,.F.);
#144=ORIENTED_EDGE('',*,*,#223,.F.);
#145=ORIENTED_EDGE('',*,*,#192,.F.);
#146=ORIENTED_EDGE('',*,*,#222,.T.);
#147=ORIENTED_EDGE('',*,*,#184,.F.);
#148=ORIENTED_EDGE('',*,*,#224,.F.);
#149=ORIENTED_EDGE('',*,*,#194,.F.);
#150=ORIENTED_EDGE('',*,*,#223,.T.);
#151=ORIENTED_EDGE('',*,*,#196,.F.);
#152=ORIENTED_EDGE('',*,*,#225,.F.);
#153=ORIENTED_EDGE('',*,*,#190,.F.);
#154=ORIENTED_EDGE('',*,*,#224,.T.);
#155=ORIENTED_EDGE('',*,*,#187,.F.);
#156=ORIENTED_EDGE('',*,*,#225,.T.);
#157=ORIENTED_EDGE('',*,*,#195,.F.);
#158=ORIENTED_EDGE('',*,*,#226,.F.);
#159=ORIENTED_EDGE('',*,*,#209,.T.);
#160=ORIENTED_EDGE('',*,*,#226,.T.);
#161=ORIENTED_EDGE('',*,*,#227,.F.);
#162=ORIENTED_EDGE('',*,*,#208,.T.);
#163=ORIENTED_EDGE('',*,*,#227,.T.);
#164=ORIENTED_EDGE('',*,*,#228,.F.);
#165=ORIENTED_EDGE('',*,*,#207,.T.);
#166=ORIENTED_EDGE('',*,*,#228,.T.);
#167=ORIENTED_EDGE('',*,*,#229,.F.);
#168=ORIENTED_EDGE('',*,*,#206,.T.);
#169=ORIENTED_EDGE('',*,*,#229,.T.);
#170=EDGE_CURVE('',#230,#231,#270,.T.);
#171=EDGE_CURVE('',#230,#232,#271,.T.);
#172=EDGE_CURVE('',#232,#233,#272,.T.);
#173=EDGE_CURVE('',#231,#233,#273,.T.);
#174=EDGE_CURVE('',#234,#235,#274,.T.);
#175=EDGE_CURVE('',#234,#230,#16,.F.);
#176=EDGE_CURVE('',#231,#235,#17,.T.);
#177=EDGE_CURVE('',#236,#237,#275,.T.);
#178=EDGE_CURVE('',#236,#234,#276,.T.);
#179=EDGE_CURVE('',#237,#235,#277,.T.);
#180=EDGE_CURVE('',#238,#239,#278,.T.);
#181=EDGE_CURVE('',#238,#236,#18,.F.);
#182=EDGE_CURVE('',#237,#239,#19,.T.);
#183=EDGE_CURVE('',#240,#241,#279,.T.);
#184=EDGE_CURVE('',#240,#238,#280,.T.);
#185=EDGE_CURVE('',#239,#241,#281,.T.);
#186=EDGE_CURVE('',#242,#243,#282,.T.);
#187=EDGE_CURVE('',#242,#240,#20,.F.);
#188=EDGE_CURVE('',#241,#243,#21,.T.);
#189=EDGE_CURVE('',#244,#245,#283,.T.);
#190=EDGE_CURVE('',#244,#242,#284,.T.);
#191=EDGE_CURVE('',#243,#245,#285,.T.);
#192=EDGE_CURVE('',#232,#244,#22,.F.);
#193=EDGE_CURVE('',#245,#233,#23,.T.);
#194=EDGE_CURVE('',#246,#247,#286,.T.);
#195=EDGE_CURVE('',#247,#248,#24,.T.);
#196=EDGE_CURVE('',#248,#249,#287,.T.);
#197=EDGE_CURVE('',#249,#250,#25,.T.);
#198=EDGE_CURVE('',#250,#251,#288,.T.);
#199=EDGE_CURVE('',#251,#252,#26,.T.);
#200=EDGE_CURVE('',#252,#253,#289,.T.);
#201=EDGE_CURVE('',#253,#246,#27,.T.);
#202=EDGE_CURVE('',#254,#255,#28,.T.);
#203=EDGE_CURVE('',#254,#256,#290,.T.);
#204=EDGE_CURVE('',#256,#257,#29,.T.);
#205=EDGE_CURVE('',#255,#257,#291,.T.);
#206=EDGE_CURVE('',#258,#258,#30,.T.);
#207=EDGE_CURVE('',#259,#259,#31,.T.);
#208=EDGE_CURVE('',#260,#260,#32,.T.);
#209=EDGE_CURVE('',#261,#261,#33,.T.);
#210=EDGE_CURVE('',#262,#255,#292,.T.);
#211=EDGE_CURVE('',#263,#262,#34,.T.);
#212=EDGE_CURVE('',#263,#254,#293,.T.);
#213=EDGE_CURVE('',#264,#257,#294,.T.);
#214=EDGE_CURVE('',#262,#264,#295,.T.);
#215=EDGE_CURVE('',#265,#256,#296,.T.);
#216=EDGE_CURVE('',#265,#264,#35,.T.);
#217=EDGE_CURVE('',#263,#265,#297,.T.);
#218=EDGE_CURVE('',#230,#251,#298,.T.);
#219=EDGE_CURVE('',#252,#234,#299,.T.);
#220=EDGE_CURVE('',#253,#236,#300,.T.);
#221=EDGE_CURVE('',#232,#250,#301,.T.);
#222=EDGE_CURVE('',#246,#238,#302,.T.);
#223=EDGE_CURVE('',#244,#249,#303,.T.);
#224=EDGE_CURVE('',#247,#240,#304,.T.);
#225=EDGE_CURVE('',#242,#248,#305,.T.);
#226=EDGE_CURVE('',#266,#266,#36,.T.);
#227=EDGE_CURVE('',#267,#267,#37,.T.);
#228=EDGE_CURVE('',#268,#268,#38,.T.);
#229=EDGE_CURVE('',#269,#269,#39,.T.);
#230=VERTEX_POINT('',#689);
#231=VERTEX_POINT('',#690);
#232=VERTEX_POINT('',#692);
#233=VERTEX_POINT('',#694);
#234=VERTEX_POINT('',#698);
#235=VERTEX_POINT('',#699);
#236=VERTEX_POINT('',#704);
#237=VERTEX_POINT('',#705);
#238=VERTEX_POINT('',#710);
#239=VERTEX_POINT('',#711);
#240=VERTEX_POINT('',#716);
#241=VERTEX_POINT('',#717);
#242=VERTEX_POINT('',#722);
#243=VERTEX_POINT('',#723);
#244=VERTEX_POINT('',#728);
#245=VERTEX_POINT('',#729);
#246=VERTEX_POINT('',#737);
#247=VERTEX_POINT('',#738);
#248=VERTEX_POINT('',#740);
#249=VERTEX_POINT('',#742);
#250=VERTEX_POINT('',#744);
#251=VERTEX_POINT('',#746);
#252=VERTEX_POINT('',#748);
#253=VERTEX_POINT('',#750);
#254=VERTEX_POINT('',#753);
#255=VERTEX_POINT('',#754);
#256=VERTEX_POINT('',#756);
#257=VERTEX_POINT('',#758);
#258=VERTEX_POINT('',#762);
#259=VERTEX_POINT('',#764);
#260=VERTEX_POINT('',#766);
#261=VERTEX_POINT('',#768);
#262=VERTEX_POINT('',#771);
#263=VERTEX_POINT('',#773);
#264=VERTEX_POINT('',#777);
#265=VERTEX_POINT('',#781);
#266=VERTEX_POINT('',#804);
#267=VERTEX_POINT('',#808);
#268=VERTEX_POINT('',#812);
#269=VERTEX_POINT('',#816);
#270=LINE('',#688,#306);
#271=LINE('',#691,#307);
#272=LINE('',#693,#308);
#273=LINE('',#695,#309);
#274=LINE('',#697,#310);
#275=LINE('',#703,#311);
#276=LINE('',#706,#312);
#277=LINE('',#707,#313);
#278=LINE('',#709,#314);
#279=LINE('',#715,#315);
#280=LINE('',#718,#316);
#281=LINE('',#719,#317);
#282=LINE('',#721,#318);
#283=LINE('',#727,#319);
#284=LINE('',#730,#320);
#285=LINE('',#731,#321);
#286=LINE('',#736,#322);
#287=LINE('',#741,#323);
#288=LINE('',#745,#324);
#289=LINE('',#749,#325);
#290=LINE('',#755,#326);
#291=LINE('',#759,#327);
#292=LINE('',#770,#328);
#293=LINE('',#774,#329);
#294=LINE('',#776,#330);
#295=LINE('',#778,#331);
#296=LINE('',#780,#332);
#297=LINE('',#784,#333);
#298=LINE('',#787,#334);
#299=LINE('',#788,#335);
#300=LINE('',#790,#336);
#301=LINE('',#792,#337);
#302=LINE('',#794,#338);
#303=LINE('',#796,#339);
#304=LINE('',#798,#340);
#305=LINE('',#800,#341);
#306=VECTOR('',#542,1.);
#307=VECTOR('',#543,1.);
#308=VECTOR('',#544,1.);
#309=VECTOR('',#545,1.);
#310=VECTOR('',#548,1.);
#311=VECTOR('',#555,1.);
#312=VECTOR('',#556,1.);
#313=VECTOR('',#557,1.);
#314=VECTOR('',#560,1.);
#315=VECTOR('',#567,1.);
#316=VECTOR('',#568,1.);
#317=VECTOR('',#569,1.);
#318=VECTOR('',#572,1.);
#319=VECTOR('',#579,1.);
#320=VECTOR('',#580,1.);
#321=VECTOR('',#581,1.);
#322=VECTOR('',#590,1.);
#323=VECTOR('',#593,1.);
#324=VECTOR('',#596,1.);
#325=VECTOR('',#599,1.);
#326=VECTOR('',#604,1.);
#327=VECTOR('',#607,1.);
#328=VECTOR('',#620,1.);
#329=VECTOR('',#623,1.);
#330=VECTOR('',#626,1.);
#331=VECTOR('',#627,1.);
#332=VECTOR('',#630,1.);
#333=VECTOR('',#635,1.);
#334=VECTOR('',#640,1.);
#335=VECTOR('',#641,1.);
#336=VECTOR('',#644,1.);
#337=VECTOR('',#647,1.);
#338=VECTOR('',#650,1.);
#339=VECTOR('',#653,1.);
#340=VECTOR('',#656,1.);
#341=VECTOR('',#659,1.);
#342=EDGE_LOOP('',(#50,#51,#52,#53));
#343=EDGE_LOOP('',(#54,#55,#56,#57));
#344=EDGE_LOOP('',(#58,#59,#60,#61));
#345=EDGE_LOOP('',(#62,#63,#64,#65));
#346=EDGE_LOOP('',(#66,#67,#68,#69));
#347=EDGE_LOOP('',(#70,#71,#72,#73));
#348=EDGE_LOOP('',(#74,#75,#76,#77));
#349=EDGE_LOOP('',(#78,#79,#80,#81));
#350=EDGE_LOOP('',(#82,#83,#84,#85,#86,#87,#88,#89));
#351=EDGE_LOOP('',(#90,#91,#92,#93));
#352=EDGE_LOOP('',(#94));
#353=EDGE_LOOP('',(#95));
#354=EDGE_LOOP('',(#96));
#355=EDGE_LOOP('',(#97));
#356=EDGE_LOOP('',(#98,#99,#100,#101,#102,#103,#104,#105));
#357=EDGE_LOOP('',(#106,#107,#108,#109));
#358=EDGE_LOOP('',(#110,#111,#112,#113));
#359=EDGE_LOOP('',(#114,#115,#116,#117));
#360=EDGE_LOOP('',(#118,#119,#120,#121));
#361=EDGE_LOOP('',(#122,#123,#124,#125));
#362=EDGE_LOOP('',(#126,#127,#128,#129));
#363=EDGE_LOOP('',(#130,#131,#132,#133));
#364=EDGE_LOOP('',(#134,#135,#136,#137));
#365=EDGE_LOOP('',(#138,#139,#140,#141));
#366=EDGE_LOOP('',(#142,#143,#144,#145));
#367=EDGE_LOOP('',(#146,#147,#148,#149));
#368=EDGE_LOOP('',(#150,#151,#152,#153));
#369=EDGE_LOOP('',(#154,#155,#156,#157));
#370=EDGE_LOOP('',(#158));
#371=EDGE_LOOP('',(#159));
#372=EDGE_LOOP('',(#160));
#373=EDGE_LOOP('',(#161));
#374=EDGE_LOOP('',(#162));
#375=EDGE_LOOP('',(#163));
#376=EDGE_LOOP('',(#164));
#377=EDGE_LOOP('',(#165));
#378=EDGE_LOOP('',(#166));
#379=EDGE_LOOP('',(#167));
#380=EDGE_LOOP('',(#168));
#381=EDGE_LOOP('',(#169));
#382=FACE_BOUND('',#342,.T.);
#383=FACE_BOUND('',#343,.T.);
#384=FACE_BOUND('',#344,.T.);
#385=FACE_BOUND('',#345,.T.);
#386=FACE_BOUND('',#346,.T.);
#387=FACE_BOUND('',#347,.T.);
#388=FACE_BOUND('',#348,.T.);
#389=FACE_BOUND('',#349,.T.);
#390=FACE_BOUND('',#350,.T.);
#391=FACE_BOUND('',#351,.T.);
#392=FACE_BOUND('',#352,.T.);
#393=FACE_BOUND('',#353,.T.);
#394=FACE_BOUND('',#354,.T.);
#395=FACE_BOUND('',#355,.T.);
#396=FACE_BOUND('',#356,.T.);
#397=FACE_BOUND('',#357,.T.);
#398=FACE_BOUND('',#358,.T.);
#399=FACE_BOUND('',#359,.T.);
#400=FACE_BOUND('',#360,.T.);
#401=FACE_BOUND('',#361,.T.);
#402=FACE_BOUND('',#362,.T.);
#403=FACE_BOUND('',#363,.T.);
#404=FACE_BOUND('',#364,.T.);
#405=FACE_BOUND('',#365,.T.);
#406=FACE_BOUND('',#366,.T.);
#407=FACE_BOUND('',#367,.T.);
#408=FACE_BOUND('',#368,.T.);
#409=FACE_BOUND('',#369,.T.);
#410=FACE_BOUND('',#370,.T.);
#411=FACE_BOUND('',#371,.T.);
#412=FACE_BOUND('',#372,.T.);
#413=FACE_BOUND('',#373,.T.);
#414=FACE_BOUND('',#374,.T.);
#415=FACE_BOUND('',#375,.T.);
#416=FACE_BOUND('',#376,.T.);
#417=FACE_BOUND('',#377,.T.);
#418=FACE_BOUND('',#378,.T.);
#419=FACE_BOUND('',#379,.T.);
#420=FACE_BOUND('',#380,.T.);
#421=FACE_BOUND('',#381,.T.);
#422=PLANE('',#483);
#423=PLANE('',#487);
#424=PLANE('',#491);
#425=PLANE('',#495);
#426=PLANE('',#499);
#427=PLANE('',#506);
#428=PLANE('',#513);
#429=PLANE('',#516);
#430=PLANE('',#517);
#431=PLANE('',#519);
#432=PLANE('',#520);
#433=PLANE('',#523);
#434=PLANE('',#524);
#435=PLANE('',#528);
#436=PLANE('',#531);
#437=PLANE('',#534);
#438=PLANE('',#537);
#439=ADVANCED_FACE('',(#382),#422,.T.);
#440=ADVANCED_FACE('',(#383),#40,.T.);
#441=ADVANCED_FACE('',(#384),#423,.T.);
#442=ADVANCED_FACE('',(#385),#41,.T.);
#443=ADVANCED_FACE('',(#386),#424,.F.);
#444=ADVANCED_FACE('',(#387),#42,.T.);
#445=ADVANCED_FACE('',(#388),#425,.F.);
#446=ADVANCED_FACE('',(#389),#43,.T.);
#447=ADVANCED_FACE('',(#390,#391),#426,.T.);
#448=ADVANCED_FACE('',(#392,#393,#394,#395,#396),#427,.F.);
#449=ADVANCED_FACE('',(#397),#44,.F.);
#450=ADVANCED_FACE('',(#398),#428,.F.);
#451=ADVANCED_FACE('',(#399),#45,.F.);
#452=ADVANCED_FACE('',(#400),#429,.T.);
#453=ADVANCED_FACE('',(#401),#430,.T.);
#454=ADVANCED_FACE('',(#402),#12,.T.);
#455=ADVANCED_FACE('',(#403),#431,.F.);
#456=ADVANCED_FACE('',(#404),#432,.F.);
#457=ADVANCED_FACE('',(#405),#13,.T.);
#458=ADVANCED_FACE('',(#406),#14,.T.);
#459=ADVANCED_FACE('',(#407),#433,.T.);
#460=ADVANCED_FACE('',(#408),#434,.T.);
#461=ADVANCED_FACE('',(#409),#15,.T.);
#462=ADVANCED_FACE('',(#410,#411),#46,.F.);
#463=ADVANCED_FACE('',(#412),#435,.T.);
#464=ADVANCED_FACE('',(#413,#414),#47,.F.);
#465=ADVANCED_FACE('',(#415),#436,.T.);
#466=ADVANCED_FACE('',(#416,#417),#48,.F.);
#467=ADVANCED_FACE('',(#418),#437,.T.);
#468=ADVANCED_FACE('',(#419,#420),#49,.F.);
#469=ADVANCED_FACE('',(#421),#438,.T.);
#470=CLOSED_SHELL('',(#439,#440,#441,#442,#443,#444,#445,#446,#447,#448,
#449,#450,#451,#452,#453,#454,#455,#456,#457,#458,#459,#460,#461,#462,#463,
#464,#465,#466,#467,#468,#469));
#471=STYLED_ITEM('',(#472),#479);
#472=PRESENTATION_STYLE_ASSIGNMENT((#473));
#473=SURFACE_STYLE_USAGE(.BOTH.,#474);
#474=SURFACE_SIDE_STYLE('',(#475));
#475=SURFACE_STYLE_FILL_AREA(#476);
#476=FILL_AREA_STYLE('',(#477));
#477=FILL_AREA_STYLE_COLOUR('',#478);
#478=COLOUR_RGB('',0.615686274509804,0.811764705882353,0.929411764705882);
#479=MANIFOLD_SOLID_BREP('Sensor',#470);
#480=SHAPE_DEFINITION_REPRESENTATION(#824,#481);
#481=SHAPE_REPRESENTATION('Sensor',(#482),#819);
#482=AXIS2_PLACEMENT_3D('',#686,#538,#539);
#483=AXIS2_PLACEMENT_3D('',#687,#540,#541);
#484=AXIS2_PLACEMENT_3D('',#696,#546,#547);
#485=AXIS2_PLACEMENT_3D('',#700,#549,#550);
#486=AXIS2_PLACEMENT_3D('',#701,#551,#552);
#487=AXIS2_PLACEMENT_3D('',#702,#553,#554);
#488=AXIS2_PLACEMENT_3D('',#708,#558,#559);
#489=AXIS2_PLACEMENT_3D('',#712,#561,#562);
#490=AXIS2_PLACEMENT_3D('',#713,#563,#564);
#491=AXIS2_PLACEMENT_3D('',#714,#565,#566);
#492=AXIS2_PLACEMENT_3D('',#720,#570,#571);
#493=AXIS2_PLACEMENT_3D('',#724,#573,#574);
#494=AXIS2_PLACEMENT_3D('',#725,#575,#576);
#495=AXIS2_PLACEMENT_3D('',#726,#577,#578);
#496=AXIS2_PLACEMENT_3D('',#732,#582,#583);
#497=AXIS2_PLACEMENT_3D('',#733,#584,#585);
#498=AXIS2_PLACEMENT_3D('',#734,#586,#587);
#499=AXIS2_PLACEMENT_3D('',#735,#588,#589);
#500=AXIS2_PLACEMENT_3D('',#739,#591,#592);
#501=AXIS2_PLACEMENT_3D('',#743,#594,#595);
#502=AXIS2_PLACEMENT_3D('',#747,#597,#598);
#503=AXIS2_PLACEMENT_3D('',#751,#600,#601);
#504=AXIS2_PLACEMENT_3D('',#752,#602,#603);
#505=AXIS2_PLACEMENT_3D('',#757,#605,#606);
#506=AXIS2_PLACEMENT_3D('',#760,#608,#609);
#507=AXIS2_PLACEMENT_3D('',#761,#610,#611);
#508=AXIS2_PLACEMENT_3D('',#763,#612,#613);
#509=AXIS2_PLACEMENT_3D('',#765,#614,#615);
#510=AXIS2_PLACEMENT_3D('',#767,#616,#617);
#511=AXIS2_PLACEMENT_3D('',#769,#618,#619);
#512=AXIS2_PLACEMENT_3D('',#772,#621,#622);
#513=AXIS2_PLACEMENT_3D('',#775,#624,#625);
#514=AXIS2_PLACEMENT_3D('',#779,#628,#629);
#515=AXIS2_PLACEMENT_3D('',#782,#631,#632);
#516=AXIS2_PLACEMENT_3D('',#783,#633,#634);
#517=AXIS2_PLACEMENT_3D('',#785,#636,#637);
#518=AXIS2_PLACEMENT_3D('',#786,#638,#639);
#519=AXIS2_PLACEMENT_3D('',#789,#642,#643);
#520=AXIS2_PLACEMENT_3D('',#791,#645,#646);
#521=AXIS2_PLACEMENT_3D('',#793,#648,#649);
#522=AXIS2_PLACEMENT_3D('',#795,#651,#652);
#523=AXIS2_PLACEMENT_3D('',#797,#654,#655);
#524=AXIS2_PLACEMENT_3D('',#799,#657,#658);
#525=AXIS2_PLACEMENT_3D('',#801,#660,#661);
#526=AXIS2_PLACEMENT_3D('',#802,#662,#663);
#527=AXIS2_PLACEMENT_3D('',#803,#664,#665);
#528=AXIS2_PLACEMENT_3D('',#805,#666,#667);
#529=AXIS2_PLACEMENT_3D('',#806,#668,#669);
#530=AXIS2_PLACEMENT_3D('',#807,#670,#671);
#531=AXIS2_PLACEMENT_3D('',#809,#672,#673);
#532=AXIS2_PLACEMENT_3D('',#810,#674,#675);
#533=AXIS2_PLACEMENT_3D('',#811,#676,#677);
#534=AXIS2_PLACEMENT_3D('',#813,#678,#679);
#535=AXIS2_PLACEMENT_3D('',#814,#680,#681);
#536=AXIS2_PLACEMENT_3D('',#815,#682,#683);
#537=AXIS2_PLACEMENT_3D('',#817,#684,#685);
#538=DIRECTION('',(0.,0.,1.));
#539=DIRECTION('',(1.,0.,0.));
#540=DIRECTION('',(-1.83697019872103E-16,1.,0.));
#541=DIRECTION('',(0.,0.,-1.));
#542=DIRECTION('',(0.,0.,-1.));
#543=DIRECTION('',(1.,1.83697019872103E-16,0.));
#544=DIRECTION('',(0.,0.,-1.));
#545=DIRECTION('',(1.,1.83697019872103E-16,0.));
#546=DIRECTION('',(0.,0.,-1.));
#547=DIRECTION('',(1.83697019872103E-16,-1.,0.));
#548=DIRECTION('',(0.,0.,-1.));
#549=DIRECTION('',(0.,0.,1.));
#550=DIRECTION('',(-1.83697019872103E-16,1.,0.));
#551=DIRECTION('',(0.,0.,1.));
#552=DIRECTION('',(-1.83697019872103E-16,1.,0.));
#553=DIRECTION('',(-1.,-1.83697019872103E-16,0.));
#554=DIRECTION('',(0.,0.,1.));
#555=DIRECTION('',(0.,0.,-1.));
#556=DIRECTION('',(-1.83697019872103E-16,1.,0.));
#557=DIRECTION('',(-1.83697019872103E-16,1.,0.));
#558=DIRECTION('',(0.,0.,-1.));
#559=DIRECTION('',(1.83697019872103E-16,-1.,0.));
#560=DIRECTION('',(0.,0.,-1.));
#561=DIRECTION('',(0.,0.,1.));
#562=DIRECTION('',(-1.83697019872103E-16,1.,0.));
#563=DIRECTION('',(0.,0.,1.));
#564=DIRECTION('',(-1.83697019872103E-16,1.,0.));
#565=DIRECTION('',(-1.83697019872103E-16,1.,0.));
#566=DIRECTION('',(0.,0.,-1.));
#567=DIRECTION('',(0.,0.,-1.));
#568=DIRECTION('',(-1.,-1.83697019872103E-16,0.));
#569=DIRECTION('',(1.,1.83697019872103E-16,0.));
#570=DIRECTION('',(0.,0.,-1.));
#571=DIRECTION('',(1.83697019872103E-16,-1.,0.));
#572=DIRECTION('',(0.,0.,-1.));
#573=DIRECTION('',(0.,0.,1.));
#574=DIRECTION('',(-1.83697019872103E-16,1.,0.));
#575=DIRECTION('',(0.,0.,1.));
#576=DIRECTION('',(-1.83697019872103E-16,1.,0.));
#577=DIRECTION('',(-1.,-1.83697019872103E-16,0.));
#578=DIRECTION('',(0.,0.,1.));
#579=DIRECTION('',(0.,0.,-1.));
#580=DIRECTION('',(1.83697019872103E-16,-1.,0.));
#581=DIRECTION('',(-1.83697019872103E-16,1.,0.));
#582=DIRECTION('',(0.,0.,-1.));
#583=DIRECTION('',(1.83697019872103E-16,-1.,0.));
#584=DIRECTION('',(0.,0.,1.));
#585=DIRECTION('',(-1.83697019872103E-16,1.,0.));
#586=DIRECTION('',(0.,0.,1.));
#587=DIRECTION('',(-1.83697019872103E-16,1.,0.));
#588=DIRECTION('',(0.,0.,1.));
#589=DIRECTION('',(-1.83697019872103E-16,1.,0.));
#590=DIRECTION('',(1.,1.83697019872103E-16,0.));
#591=DIRECTION('',(0.,0.,1.));
#592=DIRECTION('',(-1.83697019872103E-16,1.,0.));
#593=DIRECTION('',(-1.83697019872103E-16,1.,0.));
#594=DIRECTION('',(0.,0.,1.));
#595=DIRECTION('',(-1.83697019872103E-16,1.,0.));
#596=DIRECTION('',(-1.,-1.83697019872103E-16,0.));
#597=DIRECTION('',(0.,0.,1.));
#598=DIRECTION('',(-1.83697019872103E-16,1.,0.));
#599=DIRECTION('',(1.83697019872103E-16,-1.,0.));
#600=DIRECTION('',(0.,0.,1.));
#601=DIRECTION('',(-1.83697019872103E-16,1.,0.));
#602=DIRECTION('',(0.,0.,1.));
#603=DIRECTION('',(-1.83697019872103E-16,1.,0.));
#604=DIRECTION('',(-1.83697019872103E-16,1.,0.));
#605=DIRECTION('',(0.,0.,-1.));
#606=DIRECTION('',(-1.83697019872103E-16,1.,0.));
#607=DIRECTION('',(-1.83697019872103E-16,1.,0.));
#608=DIRECTION('',(0.,0.,1.));
#609=DIRECTION('',(-1.83697019872103E-16,1.,0.));
#610=DIRECTION('',(0.,0.,-1.));
#611=DIRECTION('',(1.83697019872103E-16,-1.,0.));
#612=DIRECTION('',(0.,0.,-1.));
#613=DIRECTION('',(1.83697019872103E-16,-1.,0.));
#614=DIRECTION('',(0.,0.,-1.));
#615=DIRECTION('',(1.83697019872103E-16,-1.,0.));
#616=DIRECTION('',(0.,0.,-1.));
#617=DIRECTION('',(1.83697019872103E-16,-1.,0.));
#618=DIRECTION('',(0.,0.,1.));
#619=DIRECTION('',(-1.83697019872103E-16,1.,0.));
#620=DIRECTION('',(0.,0.,1.));
#621=DIRECTION('',(0.,0.,1.));
#622=DIRECTION('',(-1.83697019872103E-16,1.,0.));
#623=DIRECTION('',(0.,0.,1.));
#624=DIRECTION('',(1.,1.83697019872103E-16,0.));
#625=DIRECTION('',(0.,0.,-1.));
#626=DIRECTION('',(0.,0.,1.));
#627=DIRECTION('',(-1.83697019872103E-16,1.,0.));
#628=DIRECTION('',(0.,0.,1.));
#629=DIRECTION('',(-1.83697019872103E-16,1.,0.));
#630=DIRECTION('',(0.,0.,1.));
#631=DIRECTION('',(0.,0.,-1.));
#632=DIRECTION('',(-1.83697019872103E-16,1.,0.));
#633=DIRECTION('',(1.,1.83697019872103E-16,0.));
#634=DIRECTION('',(0.,0.,-1.));
#635=DIRECTION('',(-1.83697019872103E-16,1.,0.));
#636=DIRECTION('',(0.,0.,1.));
#637=DIRECTION('',(-1.83697019872103E-16,1.,0.));
#638=DIRECTION('',(0.,0.,-1.));
#639=DIRECTION('',(1.83697019872103E-16,-1.,0.));
#640=DIRECTION('',(1.52845159453568E-16,-0.832050294337844,0.55470019622523));
#641=DIRECTION('',(-0.832050294337844,4.88655808893663E-16,-0.55470019622523));
#642=DIRECTION('',(0.55470019622523,1.01896772969045E-16,-0.832050294337844));
#643=DIRECTION('',(-1.83697019872103E-16,1.,0.));
#644=DIRECTION('',(-0.832050294337844,-1.52845159453568E-16,-0.55470019622523));
#645=DIRECTION('',(1.01896772969045E-16,-0.55470019622523,-0.832050294337844));
#646=DIRECTION('',(1.,1.83697019872103E-16,0.));
#647=DIRECTION('',(-1.67905324720047E-16,-0.832050294337844,0.55470019622523));
#648=DIRECTION('',(0.,0.,-1.));
#649=DIRECTION('',(1.83697019872103E-16,-1.,0.));
#650=DIRECTION('',(-1.67905324720047E-16,-0.832050294337844,-0.55470019622523));
#651=DIRECTION('',(0.,0.,-1.));
#652=DIRECTION('',(1.83697019872103E-16,-1.,0.));
#653=DIRECTION('',(-0.832050294337844,-1.52845159453568E-16,0.55470019622523));
#654=DIRECTION('',(1.01896772969045E-16,-0.55470019622523,0.832050294337844));
#655=DIRECTION('',(-1.,-1.83697019872103E-16,0.));
#656=DIRECTION('',(4.73595643627183E-16,-0.832050294337844,-0.55470019622523));
#657=DIRECTION('',(0.55470019622523,1.01896772969045E-16,0.832050294337844));
#658=DIRECTION('',(1.83697019872103E-16,-1.,0.));
#659=DIRECTION('',(-0.832050294337844,1.67905324720047E-16,0.55470019622523));
#660=DIRECTION('',(0.,0.,-1.));
#661=DIRECTION('',(1.83697019872103E-16,-1.,0.));
#662=DIRECTION('',(0.,0.,-1.));
#663=DIRECTION('',(1.83697019872103E-16,-1.,0.));
#664=DIRECTION('',(0.,0.,-1.));
#665=DIRECTION('',(1.83697019872103E-16,-1.,0.));
#666=DIRECTION('',(0.,0.,-1.));
#667=DIRECTION('',(-1.83697019872103E-16,1.,0.));
#668=DIRECTION('',(0.,0.,-1.));
#669=DIRECTION('',(1.83697019872103E-16,-1.,0.));
#670=DIRECTION('',(0.,0.,-1.));
#671=DIRECTION('',(1.83697019872103E-16,-1.,0.));
#672=DIRECTION('',(0.,0.,-1.));
#673=DIRECTION('',(-1.83697019872103E-16,1.,0.));
#674=DIRECTION('',(0.,0.,-1.));
#675=DIRECTION('',(1.83697019872103E-16,-1.,0.));
#676=DIRECTION('',(0.,0.,-1.));
#677=DIRECTION('',(1.83697019872103E-16,-1.,0.));
#678=DIRECTION('',(0.,0.,-1.));
#679=DIRECTION('',(-1.83697019872103E-16,1.,0.));
#680=DIRECTION('',(0.,0.,-1.));
#681=DIRECTION('',(1.83697019872103E-16,-1.,0.));
#682=DIRECTION('',(0.,0.,-1.));
#683=DIRECTION('',(1.83697019872103E-16,-1.,0.));
#684=DIRECTION('',(0.,0.,-1.));
#685=DIRECTION('',(-1.83697019872103E-16,1.,0.));
#686=CARTESIAN_POINT('',(0.,0.,0.));
#687=CARTESIAN_POINT('',(-0.02425,-0.013,0.0185));
#688=CARTESIAN_POINT('',(-0.0305,-0.013,0.0185));
#689=CARTESIAN_POINT('',(-0.0305,-0.013,0.017));
#690=CARTESIAN_POINT('',(-0.0305,-0.013,0.));
#691=CARTESIAN_POINT('',(-0.02425,-0.013,0.017));
#692=CARTESIAN_POINT('',(-0.018,-0.013,0.017));
#693=CARTESIAN_POINT('',(-0.018,-0.013,0.0185));
#694=CARTESIAN_POINT('',(-0.018,-0.013,0.));
#695=CARTESIAN_POINT('',(-0.02425,-0.013,0.));
#696=CARTESIAN_POINT('',(-0.0305,-0.018,0.0185));
#697=CARTESIAN_POINT('',(-0.0355,-0.018,0.0185));
#698=CARTESIAN_POINT('',(-0.0355,-0.018,0.017));
#699=CARTESIAN_POINT('',(-0.0355,-0.018,0.));
#700=CARTESIAN_POINT('',(-0.0305,-0.018,0.017));
#701=CARTESIAN_POINT('',(-0.0305,-0.018,0.));
#702=CARTESIAN_POINT('',(-0.0355,-0.02425,0.0185));
#703=CARTESIAN_POINT('',(-0.0355,-0.0305,0.0185));
#704=CARTESIAN_POINT('',(-0.0355,-0.0305,0.017));
#705=CARTESIAN_POINT('',(-0.0355,-0.0305,0.));
#706=CARTESIAN_POINT('',(-0.0355,-0.02425,0.017));
#707=CARTESIAN_POINT('',(-0.0355,-0.02425,0.));
#708=CARTESIAN_POINT('',(-0.0305,-0.0305,0.0185));
#709=CARTESIAN_POINT('',(-0.0305,-0.0355,0.0185));
#710=CARTESIAN_POINT('',(-0.0305,-0.0355,0.017));
#711=CARTESIAN_POINT('',(-0.0305,-0.0355,0.));
#712=CARTESIAN_POINT('',(-0.0305,-0.0305,0.017));
#713=CARTESIAN_POINT('',(-0.0305,-0.0305,0.));
#714=CARTESIAN_POINT('',(-0.02425,-0.0355,0.0185));
#715=CARTESIAN_POINT('',(-0.018,-0.0355,0.0185));
#716=CARTESIAN_POINT('',(-0.018,-0.0355,0.017));
#717=CARTESIAN_POINT('',(-0.018,-0.0355,0.));
#718=CARTESIAN_POINT('',(-0.0305,-0.0355,0.017));
#719=CARTESIAN_POINT('',(-0.02425,-0.0355,0.));
#720=CARTESIAN_POINT('',(-0.018,-0.0305,0.0185));
#721=CARTESIAN_POINT('',(-0.013,-0.0305,0.0185));
#722=CARTESIAN_POINT('',(-0.013,-0.0305,0.017));
#723=CARTESIAN_POINT('',(-0.013,-0.0305,0.));
#724=CARTESIAN_POINT('',(-0.018,-0.0305,0.017));
#725=CARTESIAN_POINT('',(-0.018,-0.0305,0.));
#726=CARTESIAN_POINT('',(-0.013,-0.02425,0.0185));
#727=CARTESIAN_POINT('',(-0.013,-0.018,0.0185));
#728=CARTESIAN_POINT('',(-0.013,-0.018,0.017));
#729=CARTESIAN_POINT('',(-0.013,-0.018,0.));
#730=CARTESIAN_POINT('',(-0.013,-0.0305,0.017));
#731=CARTESIAN_POINT('',(-0.013,-0.02425,0.));
#732=CARTESIAN_POINT('',(-0.018,-0.018,0.0185));
#733=CARTESIAN_POINT('',(-0.018,-0.018,0.017));
#734=CARTESIAN_POINT('',(-0.018,-0.018,0.));
#735=CARTESIAN_POINT('',(-0.02425,-0.02425,0.0185));
#736=CARTESIAN_POINT('',(-0.018,-0.03325,0.0185));
#737=CARTESIAN_POINT('',(-0.0305,-0.03325,0.0185));
#738=CARTESIAN_POINT('',(-0.018,-0.03325,0.0185));
#739=CARTESIAN_POINT('',(-0.018,-0.0305,0.0185));
#740=CARTESIAN_POINT('',(-0.01525,-0.0305,0.0185));
#741=CARTESIAN_POINT('',(-0.01525,-0.018,0.0185));
#742=CARTESIAN_POINT('',(-0.01525,-0.018,0.0185));
#743=CARTESIAN_POINT('',(-0.018,-0.018,0.0185));
#744=CARTESIAN_POINT('',(-0.018,-0.01525,0.0185));
#745=CARTESIAN_POINT('',(-0.02425,-0.01525,0.0185));
#746=CARTESIAN_POINT('',(-0.0305,-0.01525,0.0185));
#747=CARTESIAN_POINT('',(-0.0305,-0.018,0.0185));
#748=CARTESIAN_POINT('',(-0.03325,-0.018,0.0185));
#749=CARTESIAN_POINT('',(-0.03325,-0.02425,0.0185));
#750=CARTESIAN_POINT('',(-0.03325,-0.0305,0.0185));
#751=CARTESIAN_POINT('',(-0.0305,-0.0305,0.0185));
#752=CARTESIAN_POINT('',(-0.0175,-0.02525,0.0185));
#753=CARTESIAN_POINT('',(-0.019,-0.02525,0.0185));
#754=CARTESIAN_POINT('',(-0.016,-0.02525,0.0185));
#755=CARTESIAN_POINT('',(-0.019,-0.02425,0.0185));
#756=CARTESIAN_POINT('',(-0.019,-0.02325,0.0185));
#757=CARTESIAN_POINT('',(-0.0175,-0.02325,0.0185));
#758=CARTESIAN_POINT('',(-0.016,-0.02325,0.0185));
#759=CARTESIAN_POINT('',(-0.016,-0.02425,0.0185));
#760=CARTESIAN_POINT('',(-0.02425,-0.02425,0.));
#761=CARTESIAN_POINT('',(-0.031125,-0.017375,0.));
#762=CARTESIAN_POINT('',(-0.031125,-0.019325,0.));
#763=CARTESIAN_POINT('',(-0.031125,-0.031125,0.));
#764=CARTESIAN_POINT('',(-0.031125,-0.033075,0.));
#765=CARTESIAN_POINT('',(-0.017375,-0.031125,0.));
#766=CARTESIAN_POINT('',(-0.017375,-0.033075,0.));
#767=CARTESIAN_POINT('',(-0.017375,-0.017375,0.));
#768=CARTESIAN_POINT('',(-0.017375,-0.019325,0.));
#769=CARTESIAN_POINT('',(-0.0175,-0.02525,0.0175));
#770=CARTESIAN_POINT('',(-0.016,-0.02525,0.0175));
#771=CARTESIAN_POINT('',(-0.016,-0.02525,0.0175));
#772=CARTESIAN_POINT('',(-0.0175,-0.02525,0.0175));
#773=CARTESIAN_POINT('',(-0.019,-0.02525,0.0175));
#774=CARTESIAN_POINT('',(-0.019,-0.02525,0.0175));
#775=CARTESIAN_POINT('',(-0.016,-0.02425,0.0175));
#776=CARTESIAN_POINT('',(-0.016,-0.02325,0.0175));
#777=CARTESIAN_POINT('',(-0.016,-0.02325,0.0175));
#778=CARTESIAN_POINT('',(-0.016,-0.02425,0.0175));
#779=CARTESIAN_POINT('',(-0.0175,-0.02325,0.0175));
#780=CARTESIAN_POINT('',(-0.019,-0.02325,0.0175));
#781=CARTESIAN_POINT('',(-0.019,-0.02325,0.0175));
#782=CARTESIAN_POINT('',(-0.0175,-0.02325,0.0175));
#783=CARTESIAN_POINT('',(-0.019,-0.02425,0.0175));
#784=CARTESIAN_POINT('',(-0.019,-0.02425,0.0175));
#785=CARTESIAN_POINT('',(-0.02425,-0.02425,0.0175));
#786=CARTESIAN_POINT('',(-0.0305,-0.018,0.0185));
#787=CARTESIAN_POINT('',(-0.0305,-0.013,0.017));
#788=CARTESIAN_POINT('',(-0.03325,-0.018,0.0185));
#789=CARTESIAN_POINT('',(-0.0355,-0.02425,0.017));
#790=CARTESIAN_POINT('',(-0.03325,-0.0305,0.0185));
#791=CARTESIAN_POINT('',(-0.02425,-0.013,0.017));
#792=CARTESIAN_POINT('',(-0.018,-0.013,0.017));
#793=CARTESIAN_POINT('',(-0.0305,-0.0305,0.0185));
#794=CARTESIAN_POINT('',(-0.0305,-0.03325,0.0185));
#795=CARTESIAN_POINT('',(-0.018,-0.018,0.0185));
#796=CARTESIAN_POINT('',(-0.013,-0.018,0.017));
#797=CARTESIAN_POINT('',(-0.02425,-0.03325,0.0185));
#798=CARTESIAN_POINT('',(-0.018,-0.03325,0.0185));
#799=CARTESIAN_POINT('',(-0.01525,-0.02425,0.0185));
#800=CARTESIAN_POINT('',(-0.013,-0.0305,0.017));
#801=CARTESIAN_POINT('',(-0.018,-0.0305,0.0185));
#802=CARTESIAN_POINT('',(-0.017375,-0.017375,0.001));
#803=CARTESIAN_POINT('',(-0.017375,-0.017375,0.001));
#804=CARTESIAN_POINT('',(-0.017375,-0.019325,0.001));
#805=CARTESIAN_POINT('',(-0.02425,-0.02425,0.001));
#806=CARTESIAN_POINT('',(-0.017375,-0.031125,0.001));
#807=CARTESIAN_POINT('',(-0.017375,-0.031125,0.001));
#808=CARTESIAN_POINT('',(-0.017375,-0.033075,0.001));
#809=CARTESIAN_POINT('',(-0.02425,-0.02425,0.001));
#810=CARTESIAN_POINT('',(-0.031125,-0.031125,0.001));
#811=CARTESIAN_POINT('',(-0.031125,-0.031125,0.001));
#812=CARTESIAN_POINT('',(-0.031125,-0.033075,0.001));
#813=CARTESIAN_POINT('',(-0.02425,-0.02425,0.001));
#814=CARTESIAN_POINT('',(-0.031125,-0.017375,0.001));
#815=CARTESIAN_POINT('',(-0.031125,-0.017375,0.001));
#816=CARTESIAN_POINT('',(-0.031125,-0.019325,0.001));
#817=CARTESIAN_POINT('',(-0.02425,-0.02425,0.001));
#818=MECHANICAL_DESIGN_GEOMETRIC_PRESENTATION_REPRESENTATION('',(#471),
#819);
#819=(
GEOMETRIC_REPRESENTATION_CONTEXT(3)
GLOBAL_UNCERTAINTY_ASSIGNED_CONTEXT((#820))
GLOBAL_UNIT_ASSIGNED_CONTEXT((#823,#822,#821))
REPRESENTATION_CONTEXT('Sensor','TOP_LEVEL_ASSEMBLY_PART')
);
#820=UNCERTAINTY_MEASURE_WITH_UNIT(LENGTH_MEASURE(5.E-6),#823,
'DISTANCE_ACCURACY_VALUE','Maximum Tolerance applied to model');
#821=(
NAMED_UNIT(*)
SI_UNIT($,.STERADIAN.)
SOLID_ANGLE_UNIT()
);
#822=(
NAMED_UNIT(*)
PLANE_ANGLE_UNIT()
SI_UNIT($,.RADIAN.)
);
#823=(
LENGTH_UNIT()
NAMED_UNIT(*)
SI_UNIT($,.METRE.)
);
#824=PRODUCT_DEFINITION_SHAPE('','',#825);
#825=PRODUCT_DEFINITION('','',#827,#826);
#826=PRODUCT_DEFINITION_CONTEXT('',#833,'design');
#827=PRODUCT_DEFINITION_FORMATION_WITH_SPECIFIED_SOURCE('','',#829,
 .NOT_KNOWN.);
#828=PRODUCT_RELATED_PRODUCT_CATEGORY('','',(#829));
#829=PRODUCT('Sensor','Sensor','Sensor',(#831));
#830=PRODUCT_CATEGORY('','');
#831=PRODUCT_CONTEXT('',#833,'mechanical');
#832=APPLICATION_PROTOCOL_DEFINITION('international standard',
'ap242_managed_model_based_3d_engineering',2011,#833);
#833=APPLICATION_CONTEXT('managed model based 3d engineering');
ENDSEC;
END-ISO-10303-21;
