ISO-10303-21;
HEADER;
/* Generated by software containing ST-Developer
 * from STEP Tools, Inc. (www.steptools.com) 
 */
/* OPTION: using custom renumber hook */

FILE_DESCRIPTION(
/* description */ ('STEP AP242',
'CAx-IF Rec.Pracs.---Representation and Presentation of Product Manufa
cturing Information (PMI)---4.0---2014-10-13',
'CAx-IF Rec.Pracs.---3D Tessellated Geometry---0.4---2014-09-14','2;1'),

/* implementation_level */ '2;1');

FILE_NAME(
/* name */ '665193edcd191f5f30db9589',
/* time_stamp */ '2024-05-25T07:31:57Z',
/* author */ (''),
/* organization */ (''),
/* preprocessor_version */ 'ST-DEVELOPER v20',
/* originating_system */ '  ',
/* authorisation */ '  ');

FILE_SCHEMA (('AP242_MANAGED_MODEL_BASED_3D_ENGINEERING_MIM_LF { 1 0 10303 442 1 1 4 }'));
ENDSEC;

DATA;
#10=SHAPE_REPRESENTATION_RELATIONSHIP('','',#509,#11);
#11=ADVANCED_BREP_SHAPE_REPRESENTATION('',(#507),#921);
#12=CONICAL_SURFACE('',#572,0.00505525612106915,0.785398163397449);
#13=CONICAL_SURFACE('',#573,0.00505525612106914,0.785398163397449);
#14=CONICAL_SURFACE('',#574,0.00545525612106915,0.785398163397449);
#15=CONICAL_SURFACE('',#575,0.00505525612106913,0.78539816339745);
#16=CONICAL_SURFACE('',#576,0.002375,0.785398163397434);
#17=CONICAL_SURFACE('',#577,0.00545525612106915,0.785398163397446);
#18=CONICAL_SURFACE('',#578,0.003525,0.785398163397429);
#19=CONICAL_SURFACE('',#579,0.00545525612106913,0.785398163397446);
#20=CONICAL_SURFACE('',#580,0.003925,0.785398163397431);
#21=CONICAL_SURFACE('',#581,0.00505525612106915,0.785398163397446);
#22=CONICAL_SURFACE('',#582,0.002375,0.785398163397434);
#23=CONICAL_SURFACE('',#583,0.003925,0.785398163397434);
#24=CONICAL_SURFACE('',#584,0.003925,0.785398163397434);
#25=CONICAL_SURFACE('',#585,0.002775,0.785398163397434);
#26=CONICAL_SURFACE('',#586,0.002375,0.785398163397434);
#27=PLANE('',#518);
#28=PLANE('',#521);
#29=PLANE('',#533);
#30=PLANE('',#550);
#31=PLANE('',#567);
#32=PLANE('',#571);
#33=B_SPLINE_CURVE_WITH_KNOTS('',3,(#773,#774,#775,#776),.UNSPECIFIED.,
 .F.,.F.,(4,4),(2.51244993261869E-18,0.00142338592375772),.UNSPECIFIED.);
#34=B_SPLINE_CURVE_WITH_KNOTS('',3,(#780,#781,#782,#783),.UNSPECIFIED.,
 .F.,.F.,(4,4),(0.,0.00142995262873845),.UNSPECIFIED.);
#35=B_SPLINE_CURVE_WITH_KNOTS('',3,(#814,#815,#816,#817),.UNSPECIFIED.,
 .F.,.F.,(4,4),(9.48227625068985E-18,0.00142338592375771),.UNSPECIFIED.);
#36=B_SPLINE_CURVE_WITH_KNOTS('',3,(#818,#819,#820,#821),.UNSPECIFIED.,
 .F.,.F.,(4,4),(0.,0.00142995262873844),.UNSPECIFIED.);
#37=B_SPLINE_CURVE_WITH_KNOTS('',3,(#844,#845,#846,#847),.UNSPECIFIED.,
 .F.,.F.,(4,4),(0.,0.00151080554820764),.UNSPECIFIED.);
#38=B_SPLINE_CURVE_WITH_KNOTS('',3,(#859,#860,#861,#862),.UNSPECIFIED.,
 .F.,.F.,(4,4),(0.,0.00151584310552242),.UNSPECIFIED.);
#39=LINE('',#766,#55);
#40=LINE('',#771,#56);
#41=LINE('',#807,#57);
#42=LINE('',#812,#58);
#43=LINE('',#828,#59);
#44=LINE('',#839,#60);
#45=LINE('',#851,#61);
#46=LINE('',#855,#62);
#47=LINE('',#885,#63);
#48=LINE('',#887,#64);
#49=LINE('',#900,#65);
#50=LINE('',#902,#66);
#51=LINE('',#907,#67);
#52=LINE('',#909,#68);
#53=LINE('',#911,#69);
#54=LINE('',#913,#70);
#55=VECTOR('',#599,1.);
#56=VECTOR('',#602,1.);
#57=VECTOR('',#633,1.);
#58=VECTOR('',#636,1.);
#59=VECTOR('',#645,1.);
#60=VECTOR('',#660,1.);
#61=VECTOR('',#669,1.);
#62=VECTOR('',#672,1.);
#63=VECTOR('',#701,1.);
#64=VECTOR('',#704,1.);
#65=VECTOR('',#723,1.);
#66=VECTOR('',#726,1.);
#67=VECTOR('',#735,1.);
#68=VECTOR('',#738,1.);
#69=VECTOR('',#741,1.);
#70=VECTOR('',#744,1.);
#71=ORIENTED_EDGE('',*,*,#201,.T.);
#72=ORIENTED_EDGE('',*,*,#202,.T.);
#73=ORIENTED_EDGE('',*,*,#203,.T.);
#74=ORIENTED_EDGE('',*,*,#204,.F.);
#75=ORIENTED_EDGE('',*,*,#205,.T.);
#76=ORIENTED_EDGE('',*,*,#206,.T.);
#77=ORIENTED_EDGE('',*,*,#207,.T.);
#78=ORIENTED_EDGE('',*,*,#208,.T.);
#79=ORIENTED_EDGE('',*,*,#209,.T.);
#80=ORIENTED_EDGE('',*,*,#210,.T.);
#81=ORIENTED_EDGE('',*,*,#211,.T.);
#82=ORIENTED_EDGE('',*,*,#212,.F.);
#83=ORIENTED_EDGE('',*,*,#213,.T.);
#84=ORIENTED_EDGE('',*,*,#214,.T.);
#85=ORIENTED_EDGE('',*,*,#215,.T.);
#86=ORIENTED_EDGE('',*,*,#208,.F.);
#87=ORIENTED_EDGE('',*,*,#216,.T.);
#88=ORIENTED_EDGE('',*,*,#217,.T.);
#89=ORIENTED_EDGE('',*,*,#218,.T.);
#90=ORIENTED_EDGE('',*,*,#219,.T.);
#91=ORIENTED_EDGE('',*,*,#220,.F.);
#92=ORIENTED_EDGE('',*,*,#221,.T.);
#93=ORIENTED_EDGE('',*,*,#222,.T.);
#94=ORIENTED_EDGE('',*,*,#223,.T.);
#95=ORIENTED_EDGE('',*,*,#212,.T.);
#96=ORIENTED_EDGE('',*,*,#224,.T.);
#97=ORIENTED_EDGE('',*,*,#225,.T.);
#98=ORIENTED_EDGE('',*,*,#226,.T.);
#99=ORIENTED_EDGE('',*,*,#227,.T.);
#100=ORIENTED_EDGE('',*,*,#228,.T.);
#101=ORIENTED_EDGE('',*,*,#222,.F.);
#102=ORIENTED_EDGE('',*,*,#229,.T.);
#103=ORIENTED_EDGE('',*,*,#220,.T.);
#104=ORIENTED_EDGE('',*,*,#230,.T.);
#105=ORIENTED_EDGE('',*,*,#206,.F.);
#106=ORIENTED_EDGE('',*,*,#231,.T.);
#107=ORIENTED_EDGE('',*,*,#204,.T.);
#108=ORIENTED_EDGE('',*,*,#232,.T.);
#109=ORIENTED_EDGE('',*,*,#233,.F.);
#110=ORIENTED_EDGE('',*,*,#234,.T.);
#111=ORIENTED_EDGE('',*,*,#233,.T.);
#112=ORIENTED_EDGE('',*,*,#235,.T.);
#113=ORIENTED_EDGE('',*,*,#227,.F.);
#114=ORIENTED_EDGE('',*,*,#236,.T.);
#115=ORIENTED_EDGE('',*,*,#237,.T.);
#116=ORIENTED_EDGE('',*,*,#238,.F.);
#117=ORIENTED_EDGE('',*,*,#239,.F.);
#118=ORIENTED_EDGE('',*,*,#240,.T.);
#119=ORIENTED_EDGE('',*,*,#241,.T.);
#120=ORIENTED_EDGE('',*,*,#242,.T.);
#121=ORIENTED_EDGE('',*,*,#243,.T.);
#122=ORIENTED_EDGE('',*,*,#244,.T.);
#123=ORIENTED_EDGE('',*,*,#237,.F.);
#124=ORIENTED_EDGE('',*,*,#245,.T.);
#125=ORIENTED_EDGE('',*,*,#246,.T.);
#126=ORIENTED_EDGE('',*,*,#247,.T.);
#127=ORIENTED_EDGE('',*,*,#248,.T.);
#128=ORIENTED_EDGE('',*,*,#249,.T.);
#129=ORIENTED_EDGE('',*,*,#241,.F.);
#130=ORIENTED_EDGE('',*,*,#250,.T.);
#131=ORIENTED_EDGE('',*,*,#251,.F.);
#132=ORIENTED_EDGE('',*,*,#252,.T.);
#133=ORIENTED_EDGE('',*,*,#240,.F.);
#134=ORIENTED_EDGE('',*,*,#253,.T.);
#135=ORIENTED_EDGE('',*,*,#254,.T.);
#136=ORIENTED_EDGE('',*,*,#250,.F.);
#137=ORIENTED_EDGE('',*,*,#255,.F.);
#138=ORIENTED_EDGE('',*,*,#256,.T.);
#139=ORIENTED_EDGE('',*,*,#238,.T.);
#140=ORIENTED_EDGE('',*,*,#252,.F.);
#141=ORIENTED_EDGE('',*,*,#257,.F.);
#142=ORIENTED_EDGE('',*,*,#255,.T.);
#143=ORIENTED_EDGE('',*,*,#251,.T.);
#144=ORIENTED_EDGE('',*,*,#254,.F.);
#145=ORIENTED_EDGE('',*,*,#258,.F.);
#146=ORIENTED_EDGE('',*,*,#253,.F.);
#147=ORIENTED_EDGE('',*,*,#239,.T.);
#148=ORIENTED_EDGE('',*,*,#256,.F.);
#149=ORIENTED_EDGE('',*,*,#257,.T.);
#150=ORIENTED_EDGE('',*,*,#259,.F.);
#151=ORIENTED_EDGE('',*,*,#258,.T.);
#152=ORIENTED_EDGE('',*,*,#259,.T.);
#153=ORIENTED_EDGE('',*,*,#209,.F.);
#154=ORIENTED_EDGE('',*,*,#215,.F.);
#155=ORIENTED_EDGE('',*,*,#260,.F.);
#156=ORIENTED_EDGE('',*,*,#232,.F.);
#157=ORIENTED_EDGE('',*,*,#260,.T.);
#158=ORIENTED_EDGE('',*,*,#214,.F.);
#159=ORIENTED_EDGE('',*,*,#261,.F.);
#160=ORIENTED_EDGE('',*,*,#235,.F.);
#161=ORIENTED_EDGE('',*,*,#223,.F.);
#162=ORIENTED_EDGE('',*,*,#228,.F.);
#163=ORIENTED_EDGE('',*,*,#261,.T.);
#164=ORIENTED_EDGE('',*,*,#213,.F.);
#165=ORIENTED_EDGE('',*,*,#224,.F.);
#166=ORIENTED_EDGE('',*,*,#216,.F.);
#167=ORIENTED_EDGE('',*,*,#207,.F.);
#168=ORIENTED_EDGE('',*,*,#230,.F.);
#169=ORIENTED_EDGE('',*,*,#243,.F.);
#170=ORIENTED_EDGE('',*,*,#201,.F.);
#171=ORIENTED_EDGE('',*,*,#242,.F.);
#172=ORIENTED_EDGE('',*,*,#249,.F.);
#173=ORIENTED_EDGE('',*,*,#262,.F.);
#174=ORIENTED_EDGE('',*,*,#234,.F.);
#175=ORIENTED_EDGE('',*,*,#262,.T.);
#176=ORIENTED_EDGE('',*,*,#248,.F.);
#177=ORIENTED_EDGE('',*,*,#263,.F.);
#178=ORIENTED_EDGE('',*,*,#205,.F.);
#179=ORIENTED_EDGE('',*,*,#263,.T.);
#180=ORIENTED_EDGE('',*,*,#247,.F.);
#181=ORIENTED_EDGE('',*,*,#264,.F.);
#182=ORIENTED_EDGE('',*,*,#231,.F.);
#183=ORIENTED_EDGE('',*,*,#264,.T.);
#184=ORIENTED_EDGE('',*,*,#246,.F.);
#185=ORIENTED_EDGE('',*,*,#265,.F.);
#186=ORIENTED_EDGE('',*,*,#221,.F.);
#187=ORIENTED_EDGE('',*,*,#265,.T.);
#188=ORIENTED_EDGE('',*,*,#245,.F.);
#189=ORIENTED_EDGE('',*,*,#236,.F.);
#190=ORIENTED_EDGE('',*,*,#229,.F.);
#191=ORIENTED_EDGE('',*,*,#244,.F.);
#192=ORIENTED_EDGE('',*,*,#217,.F.);
#193=ORIENTED_EDGE('',*,*,#210,.F.);
#194=ORIENTED_EDGE('',*,*,#203,.F.);
#195=ORIENTED_EDGE('',*,*,#225,.F.);
#196=ORIENTED_EDGE('',*,*,#219,.F.);
#197=ORIENTED_EDGE('',*,*,#202,.F.);
#198=ORIENTED_EDGE('',*,*,#211,.F.);
#199=ORIENTED_EDGE('',*,*,#226,.F.);
#200=ORIENTED_EDGE('',*,*,#218,.F.);
#201=EDGE_CURVE('',#266,#266,#312,.T.);
#202=EDGE_CURVE('',#267,#267,#313,.F.);
#203=EDGE_CURVE('',#268,#268,#314,.T.);
#204=EDGE_CURVE('',#269,#270,#39,.T.);
#205=EDGE_CURVE('',#269,#271,#315,.F.);
#206=EDGE_CURVE('',#271,#272,#40,.T.);
#207=EDGE_CURVE('',#272,#273,#33,.T.);
#208=EDGE_CURVE('',#273,#274,#316,.T.);
#209=EDGE_CURVE('',#274,#270,#34,.T.);
#210=EDGE_CURVE('',#275,#275,#317,.F.);
#211=EDGE_CURVE('',#276,#276,#318,.T.);
#212=EDGE_CURVE('',#277,#278,#319,.T.);
#213=EDGE_CURVE('',#277,#279,#320,.T.);
#214=EDGE_CURVE('',#279,#280,#321,.F.);
#215=EDGE_CURVE('',#280,#274,#322,.T.);
#216=EDGE_CURVE('',#273,#278,#323,.T.);
#217=EDGE_CURVE('',#281,#281,#324,.T.);
#218=EDGE_CURVE('',#282,#282,#325,.F.);
#219=EDGE_CURVE('',#283,#283,#326,.T.);
#220=EDGE_CURVE('',#284,#285,#41,.T.);
#221=EDGE_CURVE('',#284,#286,#327,.F.);
#222=EDGE_CURVE('',#286,#287,#42,.T.);
#223=EDGE_CURVE('',#287,#277,#35,.T.);
#224=EDGE_CURVE('',#278,#285,#36,.T.);
#225=EDGE_CURVE('',#288,#288,#328,.F.);
#226=EDGE_CURVE('',#289,#289,#329,.T.);
#227=EDGE_CURVE('',#290,#291,#43,.T.);
#228=EDGE_CURVE('',#291,#287,#330,.F.);
#229=EDGE_CURVE('',#286,#290,#331,.T.);
#230=EDGE_CURVE('',#285,#272,#332,.F.);
#231=EDGE_CURVE('',#271,#284,#333,.T.);
#232=EDGE_CURVE('',#270,#292,#334,.F.);
#233=EDGE_CURVE('',#293,#292,#44,.T.);
#234=EDGE_CURVE('',#293,#269,#335,.T.);
#235=EDGE_CURVE('',#292,#291,#336,.T.);
#236=EDGE_CURVE('',#290,#294,#37,.T.);
#237=EDGE_CURVE('',#294,#295,#337,.T.);
#238=EDGE_CURVE('',#296,#295,#45,.T.);
#239=EDGE_CURVE('',#297,#296,#338,.T.);
#240=EDGE_CURVE('',#297,#298,#46,.T.);
#241=EDGE_CURVE('',#298,#299,#339,.T.);
#242=EDGE_CURVE('',#299,#293,#38,.T.);
#243=EDGE_CURVE('',#300,#300,#340,.F.);
#244=EDGE_CURVE('',#301,#301,#341,.F.);
#245=EDGE_CURVE('',#294,#302,#342,.F.);
#246=EDGE_CURVE('',#302,#303,#343,.T.);
#247=EDGE_CURVE('',#303,#304,#344,.F.);
#248=EDGE_CURVE('',#304,#305,#345,.T.);
#249=EDGE_CURVE('',#305,#299,#346,.F.);
#250=EDGE_CURVE('',#298,#306,#347,.T.);
#251=EDGE_CURVE('',#307,#306,#348,.T.);
#252=EDGE_CURVE('',#307,#295,#349,.T.);
#253=EDGE_CURVE('',#297,#308,#350,.T.);
#254=EDGE_CURVE('',#308,#306,#47,.T.);
#255=EDGE_CURVE('',#309,#307,#48,.T.);
#256=EDGE_CURVE('',#309,#296,#351,.T.);
#257=EDGE_CURVE('',#309,#308,#352,.T.);
#258=EDGE_CURVE('',#310,#310,#353,.T.);
#259=EDGE_CURVE('',#311,#311,#354,.T.);
#260=EDGE_CURVE('',#292,#280,#49,.T.);
#261=EDGE_CURVE('',#291,#279,#50,.T.);
#262=EDGE_CURVE('',#269,#305,#51,.T.);
#263=EDGE_CURVE('',#271,#304,#52,.T.);
#264=EDGE_CURVE('',#284,#303,#53,.T.);
#265=EDGE_CURVE('',#286,#302,#54,.T.);
#266=VERTEX_POINT('',#760);
#267=VERTEX_POINT('',#762);
#268=VERTEX_POINT('',#765);
#269=VERTEX_POINT('',#767);
#270=VERTEX_POINT('',#768);
#271=VERTEX_POINT('',#770);
#272=VERTEX_POINT('',#772);
#273=VERTEX_POINT('',#777);
#274=VERTEX_POINT('',#779);
#275=VERTEX_POINT('',#786);
#276=VERTEX_POINT('',#788);
#277=VERTEX_POINT('',#791);
#278=VERTEX_POINT('',#792);
#279=VERTEX_POINT('',#794);
#280=VERTEX_POINT('',#796);
#281=VERTEX_POINT('',#801);
#282=VERTEX_POINT('',#803);
#283=VERTEX_POINT('',#806);
#284=VERTEX_POINT('',#808);
#285=VERTEX_POINT('',#809);
#286=VERTEX_POINT('',#811);
#287=VERTEX_POINT('',#813);
#288=VERTEX_POINT('',#824);
#289=VERTEX_POINT('',#826);
#290=VERTEX_POINT('',#829);
#291=VERTEX_POINT('',#830);
#292=VERTEX_POINT('',#838);
#293=VERTEX_POINT('',#840);
#294=VERTEX_POINT('',#848);
#295=VERTEX_POINT('',#850);
#296=VERTEX_POINT('',#852);
#297=VERTEX_POINT('',#854);
#298=VERTEX_POINT('',#856);
#299=VERTEX_POINT('',#858);
#300=VERTEX_POINT('',#865);
#301=VERTEX_POINT('',#867);
#302=VERTEX_POINT('',#869);
#303=VERTEX_POINT('',#871);
#304=VERTEX_POINT('',#873);
#305=VERTEX_POINT('',#875);
#306=VERTEX_POINT('',#878);
#307=VERTEX_POINT('',#880);
#308=VERTEX_POINT('',#884);
#309=VERTEX_POINT('',#888);
#310=VERTEX_POINT('',#894);
#311=VERTEX_POINT('',#897);
#312=CIRCLE('',#512,0.002375);
#313=CIRCLE('',#513,0.002375);
#314=CIRCLE('',#515,0.003925);
#315=CIRCLE('',#516,0.003925);
#316=CIRCLE('',#517,0.003925);
#317=CIRCLE('',#519,0.003525);
#318=CIRCLE('',#520,0.002775);
#319=CIRCLE('',#522,0.003925);
#320=CIRCLE('',#523,0.00545525612106915);
#321=CIRCLE('',#524,0.00465525612106913);
#322=CIRCLE('',#525,0.00545525612106915);
#323=CIRCLE('',#526,0.00545525612106914);
#324=CIRCLE('',#528,0.002375);
#325=CIRCLE('',#529,0.002375);
#326=CIRCLE('',#531,0.003925);
#327=CIRCLE('',#532,0.003925);
#328=CIRCLE('',#534,0.003525);
#329=CIRCLE('',#535,0.002775);
#330=CIRCLE('',#537,0.00505525612106915);
#331=CIRCLE('',#538,0.00505525612106915);
#332=CIRCLE('',#540,0.00505525612106913);
#333=CIRCLE('',#541,0.00505525612106913);
#334=CIRCLE('',#543,0.00505525612106915);
#335=CIRCLE('',#544,0.00505525612106915);
#336=CIRCLE('',#546,0.00505525612106914);
#337=CIRCLE('',#547,0.00505525612106916);
#338=CIRCLE('',#548,0.00505525612106916);
#339=CIRCLE('',#549,0.00505525612106916);
#340=CIRCLE('',#551,0.002775);
#341=CIRCLE('',#552,0.002775);
#342=CIRCLE('',#553,0.00545525612106915);
#343=CIRCLE('',#554,0.003525);
#344=CIRCLE('',#555,0.00545525612106913);
#345=CIRCLE('',#556,0.003525);
#346=CIRCLE('',#557,0.00545525612106915);
#347=CIRCLE('',#558,0.00399999999999995);
#348=CIRCLE('',#559,0.00505525612106916);
#349=CIRCLE('',#560,0.00399999999999991);
#350=CIRCLE('',#562,0.00399999999999995);
#351=CIRCLE('',#564,0.00399999999999991);
#352=CIRCLE('',#566,0.00505525612106916);
#353=CIRCLE('',#568,0.0035);
#354=CIRCLE('',#570,0.0035);
#355=EDGE_LOOP('',(#71));
#356=EDGE_LOOP('',(#72));
#357=EDGE_LOOP('',(#73));
#358=EDGE_LOOP('',(#74,#75,#76,#77,#78,#79));
#359=EDGE_LOOP('',(#80));
#360=EDGE_LOOP('',(#81));
#361=EDGE_LOOP('',(#82,#83,#84,#85,#86,#87));
#362=EDGE_LOOP('',(#88));
#363=EDGE_LOOP('',(#89));
#364=EDGE_LOOP('',(#90));
#365=EDGE_LOOP('',(#91,#92,#93,#94,#95,#96));
#366=EDGE_LOOP('',(#97));
#367=EDGE_LOOP('',(#98));
#368=EDGE_LOOP('',(#99,#100,#101,#102));
#369=EDGE_LOOP('',(#103,#104,#105,#106));
#370=EDGE_LOOP('',(#107,#108,#109,#110));
#371=EDGE_LOOP('',(#111,#112,#113,#114,#115,#116,#117,#118,#119,#120));
#372=EDGE_LOOP('',(#121));
#373=EDGE_LOOP('',(#122));
#374=EDGE_LOOP('',(#123,#124,#125,#126,#127,#128,#129,#130,#131,#132));
#375=EDGE_LOOP('',(#133,#134,#135,#136));
#376=EDGE_LOOP('',(#137,#138,#139,#140));
#377=EDGE_LOOP('',(#141,#142,#143,#144));
#378=EDGE_LOOP('',(#145));
#379=EDGE_LOOP('',(#146,#147,#148,#149));
#380=EDGE_LOOP('',(#150));
#381=EDGE_LOOP('',(#151));
#382=EDGE_LOOP('',(#152));
#383=EDGE_LOOP('',(#153,#154,#155,#156));
#384=EDGE_LOOP('',(#157,#158,#159,#160));
#385=EDGE_LOOP('',(#161,#162,#163,#164));
#386=EDGE_LOOP('',(#165,#166,#167,#168));
#387=EDGE_LOOP('',(#169));
#388=EDGE_LOOP('',(#170));
#389=EDGE_LOOP('',(#171,#172,#173,#174));
#390=EDGE_LOOP('',(#175,#176,#177,#178));
#391=EDGE_LOOP('',(#179,#180,#181,#182));
#392=EDGE_LOOP('',(#183,#184,#185,#186));
#393=EDGE_LOOP('',(#187,#188,#189,#190));
#394=EDGE_LOOP('',(#191));
#395=EDGE_LOOP('',(#192));
#396=EDGE_LOOP('',(#193));
#397=EDGE_LOOP('',(#194));
#398=EDGE_LOOP('',(#195));
#399=EDGE_LOOP('',(#196));
#400=EDGE_LOOP('',(#197));
#401=EDGE_LOOP('',(#198));
#402=EDGE_LOOP('',(#199));
#403=EDGE_LOOP('',(#200));
#404=FACE_BOUND('',#355,.T.);
#405=FACE_BOUND('',#356,.T.);
#406=FACE_BOUND('',#357,.T.);
#407=FACE_BOUND('',#358,.T.);
#408=FACE_BOUND('',#359,.T.);
#409=FACE_BOUND('',#360,.T.);
#410=FACE_BOUND('',#361,.T.);
#411=FACE_BOUND('',#362,.T.);
#412=FACE_BOUND('',#363,.T.);
#413=FACE_BOUND('',#364,.T.);
#414=FACE_BOUND('',#365,.T.);
#415=FACE_BOUND('',#366,.T.);
#416=FACE_BOUND('',#367,.T.);
#417=FACE_BOUND('',#368,.T.);
#418=FACE_BOUND('',#369,.T.);
#419=FACE_BOUND('',#370,.T.);
#420=FACE_BOUND('',#371,.T.);
#421=FACE_BOUND('',#372,.T.);
#422=FACE_BOUND('',#373,.T.);
#423=FACE_BOUND('',#374,.T.);
#424=FACE_BOUND('',#375,.T.);
#425=FACE_BOUND('',#376,.T.);
#426=FACE_BOUND('',#377,.T.);
#427=FACE_BOUND('',#378,.T.);
#428=FACE_BOUND('',#379,.T.);
#429=FACE_BOUND('',#380,.T.);
#430=FACE_BOUND('',#381,.T.);
#431=FACE_BOUND('',#382,.T.);
#432=FACE_BOUND('',#383,.T.);
#433=FACE_BOUND('',#384,.T.);
#434=FACE_BOUND('',#385,.T.);
#435=FACE_BOUND('',#386,.T.);
#436=FACE_BOUND('',#387,.T.);
#437=FACE_BOUND('',#388,.T.);
#438=FACE_BOUND('',#389,.T.);
#439=FACE_BOUND('',#390,.T.);
#440=FACE_BOUND('',#391,.T.);
#441=FACE_BOUND('',#392,.T.);
#442=FACE_BOUND('',#393,.T.);
#443=FACE_BOUND('',#394,.T.);
#444=FACE_BOUND('',#395,.T.);
#445=FACE_BOUND('',#396,.T.);
#446=FACE_BOUND('',#397,.T.);
#447=FACE_BOUND('',#398,.T.);
#448=FACE_BOUND('',#399,.T.);
#449=FACE_BOUND('',#400,.T.);
#450=FACE_BOUND('',#401,.T.);
#451=FACE_BOUND('',#402,.T.);
#452=FACE_BOUND('',#403,.T.);
#453=CYLINDRICAL_SURFACE('',#511,0.002375);
#454=CYLINDRICAL_SURFACE('',#514,0.003925);
#455=CYLINDRICAL_SURFACE('',#527,0.002375);
#456=CYLINDRICAL_SURFACE('',#530,0.003925);
#457=CYLINDRICAL_SURFACE('',#536,0.00505525612106915);
#458=CYLINDRICAL_SURFACE('',#539,0.00505525612106913);
#459=CYLINDRICAL_SURFACE('',#542,0.00505525612106915);
#460=CYLINDRICAL_SURFACE('',#545,0.00505525612106914);
#461=CYLINDRICAL_SURFACE('',#561,0.00399999999999995);
#462=CYLINDRICAL_SURFACE('',#563,0.00399999999999991);
#463=CYLINDRICAL_SURFACE('',#565,0.00505525612106916);
#464=CYLINDRICAL_SURFACE('',#569,0.0035);
#465=ADVANCED_FACE('',(#404,#405),#453,.F.);
#466=ADVANCED_FACE('',(#406,#407),#454,.T.);
#467=ADVANCED_FACE('',(#408,#409),#27,.F.);
#468=ADVANCED_FACE('',(#410),#28,.F.);
#469=ADVANCED_FACE('',(#411,#412),#455,.F.);
#470=ADVANCED_FACE('',(#413,#414),#456,.T.);
#471=ADVANCED_FACE('',(#415,#416),#29,.F.);
#472=ADVANCED_FACE('',(#417),#457,.F.);
#473=ADVANCED_FACE('',(#418),#458,.F.);
#474=ADVANCED_FACE('',(#419),#459,.F.);
#475=ADVANCED_FACE('',(#420),#460,.T.);
#476=ADVANCED_FACE('',(#421,#422,#423),#30,.T.);
#477=ADVANCED_FACE('',(#424),#461,.F.);
#478=ADVANCED_FACE('',(#425),#462,.F.);
#479=ADVANCED_FACE('',(#426),#463,.T.);
#480=ADVANCED_FACE('',(#427,#428),#31,.T.);
#481=ADVANCED_FACE('',(#429,#430),#464,.F.);
#482=ADVANCED_FACE('',(#431),#32,.T.);
#483=ADVANCED_FACE('',(#432),#12,.F.);
#484=ADVANCED_FACE('',(#433),#13,.T.);
#485=ADVANCED_FACE('',(#434),#14,.F.);
#486=ADVANCED_FACE('',(#435),#15,.F.);
#487=ADVANCED_FACE('',(#436,#437),#16,.F.);
#488=ADVANCED_FACE('',(#438),#17,.F.);
#489=ADVANCED_FACE('',(#439),#18,.T.);
#490=ADVANCED_FACE('',(#440),#19,.F.);
#491=ADVANCED_FACE('',(#441),#20,.T.);
#492=ADVANCED_FACE('',(#442),#21,.F.);
#493=ADVANCED_FACE('',(#443,#444),#22,.F.);
#494=ADVANCED_FACE('',(#445,#446),#23,.T.);
#495=ADVANCED_FACE('',(#447,#448),#24,.T.);
#496=ADVANCED_FACE('',(#449,#450),#25,.F.);
#497=ADVANCED_FACE('',(#451,#452),#26,.F.);
#498=CLOSED_SHELL('',(#465,#466,#467,#468,#469,#470,#471,#472,#473,#474,
#475,#476,#477,#478,#479,#480,#481,#482,#483,#484,#485,#486,#487,#488,#489,
#490,#491,#492,#493,#494,#495,#496,#497));
#499=STYLED_ITEM('',(#500),#507);
#500=PRESENTATION_STYLE_ASSIGNMENT((#501));
#501=SURFACE_STYLE_USAGE(.BOTH.,#502);
#502=SURFACE_SIDE_STYLE('',(#503));
#503=SURFACE_STYLE_FILL_AREA(#504);
#504=FILL_AREA_STYLE('',(#505));
#505=FILL_AREA_STYLE_COLOUR('',#506);
#506=COLOUR_RGB('',0.768627450980392,0.886274509803922,0.952941176470588);
#507=MANIFOLD_SOLID_BREP('Magnet Holder',#498);
#508=SHAPE_DEFINITION_REPRESENTATION(#926,#509);
#509=SHAPE_REPRESENTATION('Magnet Holder',(#510),#921);
#510=AXIS2_PLACEMENT_3D('',#757,#587,#588);
#511=AXIS2_PLACEMENT_3D('',#758,#589,#590);
#512=AXIS2_PLACEMENT_3D('',#759,#591,#592);
#513=AXIS2_PLACEMENT_3D('',#761,#593,#594);
#514=AXIS2_PLACEMENT_3D('',#763,#595,#596);
#515=AXIS2_PLACEMENT_3D('',#764,#597,#598);
#516=AXIS2_PLACEMENT_3D('',#769,#600,#601);
#517=AXIS2_PLACEMENT_3D('',#778,#603,#604);
#518=AXIS2_PLACEMENT_3D('',#784,#605,#606);
#519=AXIS2_PLACEMENT_3D('',#785,#607,#608);
#520=AXIS2_PLACEMENT_3D('',#787,#609,#610);
#521=AXIS2_PLACEMENT_3D('',#789,#611,#612);
#522=AXIS2_PLACEMENT_3D('',#790,#613,#614);
#523=AXIS2_PLACEMENT_3D('',#793,#615,#616);
#524=AXIS2_PLACEMENT_3D('',#795,#617,#618);
#525=AXIS2_PLACEMENT_3D('',#797,#619,#620);
#526=AXIS2_PLACEMENT_3D('',#798,#621,#622);
#527=AXIS2_PLACEMENT_3D('',#799,#623,#624);
#528=AXIS2_PLACEMENT_3D('',#800,#625,#626);
#529=AXIS2_PLACEMENT_3D('',#802,#627,#628);
#530=AXIS2_PLACEMENT_3D('',#804,#629,#630);
#531=AXIS2_PLACEMENT_3D('',#805,#631,#632);
#532=AXIS2_PLACEMENT_3D('',#810,#634,#635);
#533=AXIS2_PLACEMENT_3D('',#822,#637,#638);
#534=AXIS2_PLACEMENT_3D('',#823,#639,#640);
#535=AXIS2_PLACEMENT_3D('',#825,#641,#642);
#536=AXIS2_PLACEMENT_3D('',#827,#643,#644);
#537=AXIS2_PLACEMENT_3D('',#831,#646,#647);
#538=AXIS2_PLACEMENT_3D('',#832,#648,#649);
#539=AXIS2_PLACEMENT_3D('',#833,#650,#651);
#540=AXIS2_PLACEMENT_3D('',#834,#652,#653);
#541=AXIS2_PLACEMENT_3D('',#835,#654,#655);
#542=AXIS2_PLACEMENT_3D('',#836,#656,#657);
#543=AXIS2_PLACEMENT_3D('',#837,#658,#659);
#544=AXIS2_PLACEMENT_3D('',#841,#661,#662);
#545=AXIS2_PLACEMENT_3D('',#842,#663,#664);
#546=AXIS2_PLACEMENT_3D('',#843,#665,#666);
#547=AXIS2_PLACEMENT_3D('',#849,#667,#668);
#548=AXIS2_PLACEMENT_3D('',#853,#670,#671);
#549=AXIS2_PLACEMENT_3D('',#857,#673,#674);
#550=AXIS2_PLACEMENT_3D('',#863,#675,#676);
#551=AXIS2_PLACEMENT_3D('',#864,#677,#678);
#552=AXIS2_PLACEMENT_3D('',#866,#679,#680);
#553=AXIS2_PLACEMENT_3D('',#868,#681,#682);
#554=AXIS2_PLACEMENT_3D('',#870,#683,#684);
#555=AXIS2_PLACEMENT_3D('',#872,#685,#686);
#556=AXIS2_PLACEMENT_3D('',#874,#687,#688);
#557=AXIS2_PLACEMENT_3D('',#876,#689,#690);
#558=AXIS2_PLACEMENT_3D('',#877,#691,#692);
#559=AXIS2_PLACEMENT_3D('',#879,#693,#694);
#560=AXIS2_PLACEMENT_3D('',#881,#695,#696);
#561=AXIS2_PLACEMENT_3D('',#882,#697,#698);
#562=AXIS2_PLACEMENT_3D('',#883,#699,#700);
#563=AXIS2_PLACEMENT_3D('',#886,#702,#703);
#564=AXIS2_PLACEMENT_3D('',#889,#705,#706);
#565=AXIS2_PLACEMENT_3D('',#890,#707,#708);
#566=AXIS2_PLACEMENT_3D('',#891,#709,#710);
#567=AXIS2_PLACEMENT_3D('',#892,#711,#712);
#568=AXIS2_PLACEMENT_3D('',#893,#713,#714);
#569=AXIS2_PLACEMENT_3D('',#895,#715,#716);
#570=AXIS2_PLACEMENT_3D('',#896,#717,#718);
#571=AXIS2_PLACEMENT_3D('',#898,#719,#720);
#572=AXIS2_PLACEMENT_3D('',#899,#721,#722);
#573=AXIS2_PLACEMENT_3D('',#901,#724,#725);
#574=AXIS2_PLACEMENT_3D('',#903,#727,#728);
#575=AXIS2_PLACEMENT_3D('',#904,#729,#730);
#576=AXIS2_PLACEMENT_3D('',#905,#731,#732);
#577=AXIS2_PLACEMENT_3D('',#906,#733,#734);
#578=AXIS2_PLACEMENT_3D('',#908,#736,#737);
#579=AXIS2_PLACEMENT_3D('',#910,#739,#740);
#580=AXIS2_PLACEMENT_3D('',#912,#742,#743);
#581=AXIS2_PLACEMENT_3D('',#914,#745,#746);
#582=AXIS2_PLACEMENT_3D('',#915,#747,#748);
#583=AXIS2_PLACEMENT_3D('',#916,#749,#750);
#584=AXIS2_PLACEMENT_3D('',#917,#751,#752);
#585=AXIS2_PLACEMENT_3D('',#918,#753,#754);
#586=AXIS2_PLACEMENT_3D('',#919,#755,#756);
#587=DIRECTION('',(0.,0.,1.));
#588=DIRECTION('',(1.,0.,0.));
#589=DIRECTION('',(0.,0.,-1.));
#590=DIRECTION('',(-1.,0.,0.));
#591=DIRECTION('',(0.,0.,1.));
#592=DIRECTION('',(1.,0.,0.));
#593=DIRECTION('',(0.,0.,1.));
#594=DIRECTION('',(1.,0.,0.));
#595=DIRECTION('',(0.,0.,-1.));
#596=DIRECTION('',(-1.,0.,0.));
#597=DIRECTION('',(0.,0.,1.));
#598=DIRECTION('',(1.,0.,0.));
#599=DIRECTION('',(0.,0.,-1.));
#600=DIRECTION('',(0.,0.,1.));
#601=DIRECTION('',(1.,0.,0.));
#602=DIRECTION('',(0.,0.,-1.));
#603=DIRECTION('',(0.,0.,-1.));
#604=DIRECTION('',(-1.,0.,0.));
#605=DIRECTION('',(0.,0.,1.));
#606=DIRECTION('',(1.,0.,0.));
#607=DIRECTION('',(0.,0.,1.));
#608=DIRECTION('',(1.,0.,0.));
#609=DIRECTION('',(0.,0.,1.));
#610=DIRECTION('',(1.,0.,0.));
#611=DIRECTION('',(0.,0.,1.));
#612=DIRECTION('',(1.,0.,0.));
#613=DIRECTION('',(0.,0.,-1.));
#614=DIRECTION('',(-1.,0.,0.));
#615=DIRECTION('',(0.,0.,1.));
#616=DIRECTION('',(1.,0.,0.));
#617=DIRECTION('',(0.,0.,1.));
#618=DIRECTION('',(1.,0.,0.));
#619=DIRECTION('',(0.,0.,1.));
#620=DIRECTION('',(1.,0.,0.));
#621=DIRECTION('',(0.,0.,1.));
#622=DIRECTION('',(1.,0.,0.));
#623=DIRECTION('',(0.,0.,-1.));
#624=DIRECTION('',(-1.,0.,0.));
#625=DIRECTION('',(0.,0.,1.));
#626=DIRECTION('',(1.,0.,0.));
#627=DIRECTION('',(0.,0.,1.));
#628=DIRECTION('',(1.,0.,0.));
#629=DIRECTION('',(0.,0.,-1.));
#630=DIRECTION('',(-1.,0.,0.));
#631=DIRECTION('',(0.,0.,1.));
#632=DIRECTION('',(1.,0.,0.));
#633=DIRECTION('',(0.,0.,-1.));
#634=DIRECTION('',(0.,0.,1.));
#635=DIRECTION('',(1.,0.,0.));
#636=DIRECTION('',(0.,0.,-1.));
#637=DIRECTION('',(0.,0.,1.));
#638=DIRECTION('',(1.,0.,0.));
#639=DIRECTION('',(0.,0.,1.));
#640=DIRECTION('',(1.,0.,0.));
#641=DIRECTION('',(0.,0.,1.));
#642=DIRECTION('',(1.,0.,0.));
#643=DIRECTION('',(0.,0.,-1.));
#644=DIRECTION('',(-1.,0.,0.));
#645=DIRECTION('',(0.,0.,-1.));
#646=DIRECTION('',(0.,0.,1.));
#647=DIRECTION('',(1.,0.,0.));
#648=DIRECTION('',(0.,0.,1.));
#649=DIRECTION('',(1.,0.,0.));
#650=DIRECTION('',(0.,0.,-1.));
#651=DIRECTION('',(-1.,0.,0.));
#652=DIRECTION('',(0.,0.,1.));
#653=DIRECTION('',(1.,0.,0.));
#654=DIRECTION('',(0.,0.,1.));
#655=DIRECTION('',(1.,0.,0.));
#656=DIRECTION('',(0.,0.,-1.));
#657=DIRECTION('',(-1.,0.,0.));
#658=DIRECTION('',(0.,0.,1.));
#659=DIRECTION('',(1.,0.,0.));
#660=DIRECTION('',(0.,0.,-1.));
#661=DIRECTION('',(0.,0.,1.));
#662=DIRECTION('',(1.,0.,0.));
#663=DIRECTION('',(0.,0.,-1.));
#664=DIRECTION('',(-1.,0.,0.));
#665=DIRECTION('',(0.,0.,1.));
#666=DIRECTION('',(1.,0.,0.));
#667=DIRECTION('',(0.,0.,1.));
#668=DIRECTION('',(1.,0.,0.));
#669=DIRECTION('',(0.,0.,-1.));
#670=DIRECTION('',(0.,0.,1.));
#671=DIRECTION('',(1.,0.,0.));
#672=DIRECTION('',(0.,0.,-1.));
#673=DIRECTION('',(0.,0.,1.));
#674=DIRECTION('',(1.,0.,0.));
#675=DIRECTION('',(0.,0.,1.));
#676=DIRECTION('',(1.,0.,0.));
#677=DIRECTION('',(0.,0.,1.));
#678=DIRECTION('',(1.,0.,0.));
#679=DIRECTION('',(0.,0.,1.));
#680=DIRECTION('',(1.,0.,0.));
#681=DIRECTION('',(0.,0.,1.));
#682=DIRECTION('',(1.,0.,0.));
#683=DIRECTION('',(0.,0.,1.));
#684=DIRECTION('',(1.,0.,0.));
#685=DIRECTION('',(0.,0.,1.));
#686=DIRECTION('',(1.,0.,0.));
#687=DIRECTION('',(0.,0.,1.));
#688=DIRECTION('',(1.,0.,0.));
#689=DIRECTION('',(0.,0.,1.));
#690=DIRECTION('',(1.,0.,0.));
#691=DIRECTION('',(0.,0.,1.));
#692=DIRECTION('',(1.,0.,0.));
#693=DIRECTION('',(0.,0.,1.));
#694=DIRECTION('',(1.,0.,0.));
#695=DIRECTION('',(0.,0.,1.));
#696=DIRECTION('',(1.,0.,0.));
#697=DIRECTION('',(0.,0.,-1.));
#698=DIRECTION('',(-1.,0.,0.));
#699=DIRECTION('',(0.,0.,1.));
#700=DIRECTION('',(1.,0.,0.));
#701=DIRECTION('',(0.,0.,-1.));
#702=DIRECTION('',(0.,0.,-1.));
#703=DIRECTION('',(-1.,0.,0.));
#704=DIRECTION('',(0.,0.,-1.));
#705=DIRECTION('',(0.,0.,1.));
#706=DIRECTION('',(1.,0.,0.));
#707=DIRECTION('',(0.,0.,-1.));
#708=DIRECTION('',(-1.,0.,0.));
#709=DIRECTION('',(0.,0.,1.));
#710=DIRECTION('',(1.,0.,0.));
#711=DIRECTION('',(0.,0.,1.));
#712=DIRECTION('',(-1.83697019872103E-16,1.,0.));
#713=DIRECTION('',(0.,0.,1.));
#714=DIRECTION('',(1.,0.,0.));
#715=DIRECTION('',(0.,0.,1.));
#716=DIRECTION('',(1.,0.,0.));
#717=DIRECTION('',(0.,0.,1.));
#718=DIRECTION('',(1.,0.,0.));
#719=DIRECTION('',(0.,0.,1.));
#720=DIRECTION('',(1.,0.,0.));
#721=DIRECTION('',(0.,0.,-1.));
#722=DIRECTION('',(-1.,0.,0.));
#723=DIRECTION('',(0.69471729792614,0.131787237478458,-0.707106781186547));
#724=DIRECTION('',(0.,0.,1.));
#725=DIRECTION('',(1.,0.,0.));
#726=DIRECTION('',(-0.69471729792614,0.131787237478458,-0.707106781186547));
#727=DIRECTION('',(0.,0.,-1.));
#728=DIRECTION('',(-1.,0.,0.));
#729=DIRECTION('',(0.,0.,-1.));
#730=DIRECTION('',(-1.,0.,0.));
#731=DIRECTION('',(0.,0.,1.));
#732=DIRECTION('',(1.,0.,0.));
#733=DIRECTION('',(0.,0.,1.));
#734=DIRECTION('',(1.,0.,0.));
#735=DIRECTION('',(0.282154501031228,0.648373995119958,0.70710678118655));
#736=DIRECTION('',(0.,0.,-1.));
#737=DIRECTION('',(-1.,0.,0.));
#738=DIRECTION('',(-0.49999999999999,-0.499999999999989,0.707106781186563));
#739=DIRECTION('',(0.,0.,1.));
#740=DIRECTION('',(1.,0.,0.));
#741=DIRECTION('',(0.5,-0.5,0.707106781186549));
#742=DIRECTION('',(0.,0.,-1.));
#743=DIRECTION('',(-1.,0.,0.));
#744=DIRECTION('',(-0.282154501031225,0.648373995119948,0.707106781186561));
#745=DIRECTION('',(0.,0.,1.));
#746=DIRECTION('',(1.,0.,0.));
#747=DIRECTION('',(0.,0.,1.));
#748=DIRECTION('',(1.,0.,0.));
#749=DIRECTION('',(0.,0.,1.));
#750=DIRECTION('',(1.,0.,0.));
#751=DIRECTION('',(0.,0.,1.));
#752=DIRECTION('',(1.,0.,0.));
#753=DIRECTION('',(0.,0.,-1.));
#754=DIRECTION('',(-1.,0.,0.));
#755=DIRECTION('',(0.,0.,-1.));
#756=DIRECTION('',(-1.,0.,0.));
#757=CARTESIAN_POINT('',(0.,0.,0.));
#758=CARTESIAN_POINT('',(-0.00635,-0.0179,0.258017621135331));
#759=CARTESIAN_POINT('',(-0.00635,-0.0179,0.0058));
#760=CARTESIAN_POINT('',(-0.003975,-0.0179,0.0058));
#761=CARTESIAN_POINT('',(-0.00635,-0.0179,-0.0016));
#762=CARTESIAN_POINT('',(-0.003975,-0.0179,-0.0016));
#763=CARTESIAN_POINT('',(-0.00635,-0.0179,0.258017621135331));
#764=CARTESIAN_POINT('',(-0.00635,-0.0179,-0.0016));
#765=CARTESIAN_POINT('',(-0.002425,-0.0179,-0.0016));
#766=CARTESIAN_POINT('',(-0.00791617988401867,-0.0214989867422506,0.0062));
#767=CARTESIAN_POINT('',(-0.00791617988401867,-0.0214989867422506,0.0058));
#768=CARTESIAN_POINT('',(-0.00791617988401867,-0.0214989867422506,0.0006));
#769=CARTESIAN_POINT('',(-0.00635,-0.0179,0.0058));
#770=CARTESIAN_POINT('',(-0.00357460588384279,-0.0151246058838428,0.0058));
#771=CARTESIAN_POINT('',(-0.00357460588384279,-0.0151246058838428,0.0062));
#772=CARTESIAN_POINT('',(-0.00357460588384279,-0.0151246058838428,0.0006));
#773=CARTESIAN_POINT('',(-0.00357460588384279,-0.0151246058838428,0.0006));
#774=CARTESIAN_POINT('',(-0.00323242061130347,-0.0154667911563821,0.000599999999999998));
#775=CARTESIAN_POINT('',(-0.00297443361660062,-0.0158535534420292,0.000435438872607907));
#776=CARTESIAN_POINT('',(-0.00279600237984576,-0.0162342491434978,0.0002));
#777=CARTESIAN_POINT('',(-0.00279600237984576,-0.0162342491434978,0.0002));
#778=CARTESIAN_POINT('',(-0.00635,-0.0179,0.0002));
#779=CARTESIAN_POINT('',(-0.00659848542901814,-0.0218171264967532,0.0002));
#780=CARTESIAN_POINT('',(-0.00659848542901814,-0.0218171264967532,0.0002));
#781=CARTESIAN_POINT('',(-0.00701745040317523,-0.0217905491851874,0.000435086369744343));
#782=CARTESIAN_POINT('',(-0.00747310267887754,-0.0216918017358744,0.000600000000000004));
#783=CARTESIAN_POINT('',(-0.00791617988401867,-0.0214989867422506,0.000600000000000009));
#784=CARTESIAN_POINT('',(0.0001,-0.0179,-0.002));
#785=CARTESIAN_POINT('',(-0.00635,-0.0179,-0.002));
#786=CARTESIAN_POINT('',(-0.002825,-0.0179,-0.002));
#787=CARTESIAN_POINT('',(-0.00635,-0.0179,-0.002));
#788=CARTESIAN_POINT('',(-0.003575,-0.0179,-0.002));
#789=CARTESIAN_POINT('',(0.,-0.0222875,0.0002));
#790=CARTESIAN_POINT('',(0.00635,-0.0179,0.0002));
#791=CARTESIAN_POINT('',(0.00659848542901814,-0.0218171264967532,0.0002));
#792=CARTESIAN_POINT('',(0.00279600237984575,-0.0162342491434978,0.0002));
#793=CARTESIAN_POINT('',(0.00993336216309658,-0.0261343497380235,0.0002));
#794=CARTESIAN_POINT('',(0.00457368963165133,-0.0251176247495759,0.0002));
#795=CARTESIAN_POINT('',(-2.25514051876985E-17,-0.02425,0.0002));
#796=CARTESIAN_POINT('',(-0.00457368963165135,-0.0251176247495759,0.0002));
#797=CARTESIAN_POINT('',(-0.00993336216309658,-0.0261343497380235,0.0002));
#798=CARTESIAN_POINT('',(-2.16840434497101E-18,-0.01155,0.0002));
#799=CARTESIAN_POINT('',(0.00635,-0.0179,0.258017621135331));
#800=CARTESIAN_POINT('',(0.00635,-0.0179,0.0058));
#801=CARTESIAN_POINT('',(0.008725,-0.0179,0.0058));
#802=CARTESIAN_POINT('',(0.00635,-0.0179,-0.0016));
#803=CARTESIAN_POINT('',(0.008725,-0.0179,-0.0016));
#804=CARTESIAN_POINT('',(0.00635,-0.0179,0.258017621135331));
#805=CARTESIAN_POINT('',(0.00635,-0.0179,-0.0016));
#806=CARTESIAN_POINT('',(0.010275,-0.0179,-0.0016));
#807=CARTESIAN_POINT('',(0.00357460588384279,-0.0151246058838428,0.0062));
#808=CARTESIAN_POINT('',(0.00357460588384279,-0.0151246058838428,0.0058));
#809=CARTESIAN_POINT('',(0.00357460588384279,-0.0151246058838428,0.0006));
#810=CARTESIAN_POINT('',(0.00635,-0.0179,0.0058));
#811=CARTESIAN_POINT('',(0.00791617988401867,-0.0214989867422506,0.0058));
#812=CARTESIAN_POINT('',(0.00791617988401867,-0.0214989867422506,0.0062));
#813=CARTESIAN_POINT('',(0.00791617988401867,-0.0214989867422506,0.0006));
#814=CARTESIAN_POINT('',(0.00791617988401866,-0.0214989867422506,0.0006));
#815=CARTESIAN_POINT('',(0.00747245181956361,-0.0216920849719177,0.000599999999999997));
#816=CARTESIAN_POINT('',(0.00701807862485088,-0.0217905093335428,0.000435438872607906));
#817=CARTESIAN_POINT('',(0.00659848542901814,-0.0218171264967532,0.0002));
#818=CARTESIAN_POINT('',(0.00279600237984575,-0.0162342491434978,0.0002));
#819=CARTESIAN_POINT('',(0.00297416646648556,-0.0158541234257512,0.00043508636974434));
#820=CARTESIAN_POINT('',(0.00323292252788158,-0.015466289239804,0.000599999999999999));
#821=CARTESIAN_POINT('',(0.00357460588384279,-0.0151246058838428,0.0006));
#822=CARTESIAN_POINT('',(0.0001,-0.0179,-0.002));
#823=CARTESIAN_POINT('',(0.00635,-0.0179,-0.002));
#824=CARTESIAN_POINT('',(0.009875,-0.0179,-0.002));
#825=CARTESIAN_POINT('',(0.00635,-0.0179,-0.002));
#826=CARTESIAN_POINT('',(0.009125,-0.0179,-0.002));
#827=CARTESIAN_POINT('',(0.00993336216309658,-0.0261343497380235,0.0062));
#828=CARTESIAN_POINT('',(0.00496668108154829,-0.0251921748690118,0.0062));
#829=CARTESIAN_POINT('',(0.00496668108154829,-0.0251921748690118,0.0058));
#830=CARTESIAN_POINT('',(0.00496668108154829,-0.0251921748690118,0.0006));
#831=CARTESIAN_POINT('',(0.00993336216309658,-0.0261343497380235,0.0006));
#832=CARTESIAN_POINT('',(0.00993336216309658,-0.0261343497380235,0.0058));
#833=CARTESIAN_POINT('',(-2.16840434497101E-18,-0.01155,0.0062));
#834=CARTESIAN_POINT('',(-2.16840434497101E-18,-0.01155,0.0006));
#835=CARTESIAN_POINT('',(-2.16840434497101E-18,-0.01155,0.0058));
#836=CARTESIAN_POINT('',(-0.00993336216309658,-0.0261343497380235,0.0062));
#837=CARTESIAN_POINT('',(-0.00993336216309658,-0.0261343497380235,0.0006));
#838=CARTESIAN_POINT('',(-0.00496668108154828,-0.0251921748690118,0.0006));
#839=CARTESIAN_POINT('',(-0.00496668108154828,-0.0251921748690118,0.0062));
#840=CARTESIAN_POINT('',(-0.00496668108154828,-0.0251921748690118,0.0058));
#841=CARTESIAN_POINT('',(-0.00993336216309658,-0.0261343497380235,0.0058));
#842=CARTESIAN_POINT('',(-2.25514051876985E-17,-0.02425,0.0062));
#843=CARTESIAN_POINT('',(-2.25514051876985E-17,-0.02425,0.0006));
#844=CARTESIAN_POINT('',(0.00496668108154829,-0.0251921748690118,0.0058));
#845=CARTESIAN_POINT('',(0.00506235607919884,-0.0246878234832583,0.0058));
#846=CARTESIAN_POINT('',(0.00507517147077512,-0.0241940504266904,0.00596188812851272));
#847=CARTESIAN_POINT('',(0.00502983725085613,-0.0237436881598197,0.0062));
#848=CARTESIAN_POINT('',(0.00502983725085616,-0.0237436881598197,0.0062));
#849=CARTESIAN_POINT('',(-2.3984780453013E-17,-0.02425,0.0062));
#850=CARTESIAN_POINT('',(0.00395955341646735,-0.0211071428298841,0.0062));
#851=CARTESIAN_POINT('',(0.00395955341646735,-0.0211071428298841,0.018502));
#852=CARTESIAN_POINT('',(0.00395955341646735,-0.0211071428298841,0.0185));
#853=CARTESIAN_POINT('',(-2.3984780453013E-17,-0.02425,0.0185));
#854=CARTESIAN_POINT('',(-0.00395955341646748,-0.0211071428298843,0.0185));
#855=CARTESIAN_POINT('',(-0.00395955341646748,-0.0211071428298843,0.018502));
#856=CARTESIAN_POINT('',(-0.00395955341646748,-0.0211071428298843,0.0062));
#857=CARTESIAN_POINT('',(-2.3984780453013E-17,-0.02425,0.0062));
#858=CARTESIAN_POINT('',(-0.00502983725085619,-0.0237436881598196,0.0062));
#859=CARTESIAN_POINT('',(-0.0050298372508562,-0.0237436881598196,0.0062));
#860=CARTESIAN_POINT('',(-0.00507506829913789,-0.0241930254920485,0.00596243002361288));
#861=CARTESIAN_POINT('',(-0.00506215400868099,-0.0246888886993358,0.0058));
#862=CARTESIAN_POINT('',(-0.00496668108154831,-0.0251921748690118,0.0058));
#863=CARTESIAN_POINT('',(0.,-0.0222875,0.0062));
#864=CARTESIAN_POINT('',(-0.00635,-0.0179,0.0062));
#865=CARTESIAN_POINT('',(-0.003575,-0.0179,0.0062));
#866=CARTESIAN_POINT('',(0.00635,-0.0179,0.0062));
#867=CARTESIAN_POINT('',(0.009125,-0.0179,0.0062));
#868=CARTESIAN_POINT('',(0.00993336216309658,-0.0261343497380235,0.0062));
#869=CARTESIAN_POINT('',(0.00775656919520147,-0.0211322110232951,0.0062));
#870=CARTESIAN_POINT('',(0.00635,-0.0179,0.0062));
#871=CARTESIAN_POINT('',(0.00385744859631741,-0.0154074485963174,0.0062));
#872=CARTESIAN_POINT('',(-2.16840434497101E-18,-0.01155,0.0062));
#873=CARTESIAN_POINT('',(-0.00385744859631742,-0.0154074485963174,0.0062));
#874=CARTESIAN_POINT('',(-0.00635,-0.0179,0.0062));
#875=CARTESIAN_POINT('',(-0.00775656919520148,-0.0211322110232951,0.0062));
#876=CARTESIAN_POINT('',(-0.00993336216309658,-0.0261343497380235,0.0062));
#877=CARTESIAN_POINT('',(-0.00635,-0.0179,0.0062));
#878=CARTESIAN_POINT('',(-0.00314285717011577,-0.0202904465835325,0.0062));
#879=CARTESIAN_POINT('',(-2.12503625807159E-17,-0.02425,0.0062));
#880=CARTESIAN_POINT('',(0.00314285717011587,-0.0202904465835326,0.0062));
#881=CARTESIAN_POINT('',(0.00634999999999991,-0.0179,0.0062));
#882=CARTESIAN_POINT('',(-0.00635,-0.0179,0.018502));
#883=CARTESIAN_POINT('',(-0.00635,-0.0179,0.0185));
#884=CARTESIAN_POINT('',(-0.00314285717011577,-0.0202904465835325,0.0185));
#885=CARTESIAN_POINT('',(-0.00314285717011577,-0.0202904465835325,0.018502));
#886=CARTESIAN_POINT('',(0.00634999999999991,-0.0179,0.018502));
#887=CARTESIAN_POINT('',(0.00314285717011587,-0.0202904465835326,0.018502));
#888=CARTESIAN_POINT('',(0.00314285717011587,-0.0202904465835326,0.0185));
#889=CARTESIAN_POINT('',(0.00634999999999991,-0.0179,0.0185));
#890=CARTESIAN_POINT('',(-2.12503625807159E-17,-0.02425,0.018502));
#891=CARTESIAN_POINT('',(-2.12503625807159E-17,-0.02425,0.0185));
#892=CARTESIAN_POINT('',(-0.02425,-0.02425,0.0185));
#893=CARTESIAN_POINT('',(0.,-0.02425,0.0185));
#894=CARTESIAN_POINT('',(0.0035,-0.02425,0.0185));
#895=CARTESIAN_POINT('',(0.,-0.02425,0.0165));
#896=CARTESIAN_POINT('',(0.,-0.02425,0.0165));
#897=CARTESIAN_POINT('',(0.0035,-0.02425,0.0165));
#898=CARTESIAN_POINT('',(-2.42861286636753E-17,-0.02425,0.0165));
#899=CARTESIAN_POINT('',(-0.00993336216309658,-0.0261343497380235,0.0006));
#900=CARTESIAN_POINT('',(-0.00496668108154829,-0.0251921748690118,0.0006));
#901=CARTESIAN_POINT('',(-2.25514051876985E-17,-0.02425,0.0006));
#902=CARTESIAN_POINT('',(0.00496668108154826,-0.0251921748690118,0.0006));
#903=CARTESIAN_POINT('',(0.00993336216309658,-0.0261343497380235,0.0002));
#904=CARTESIAN_POINT('',(-2.16840434497101E-18,-0.01155,0.0006));
#905=CARTESIAN_POINT('',(-0.00635,-0.0179,0.0058));
#906=CARTESIAN_POINT('',(-0.00993336216309658,-0.0261343497380235,0.0062));
#907=CARTESIAN_POINT('',(-0.00791617988401867,-0.0214989867422506,0.0058));
#908=CARTESIAN_POINT('',(-0.00635,-0.0179,0.0062));
#909=CARTESIAN_POINT('',(-0.00357460588384279,-0.0151246058838428,0.0058));
#910=CARTESIAN_POINT('',(-2.16840434497101E-18,-0.01155,0.0062));
#911=CARTESIAN_POINT('',(0.00357460588384279,-0.0151246058838428,0.0058));
#912=CARTESIAN_POINT('',(0.00635,-0.0179,0.0058));
#913=CARTESIAN_POINT('',(0.00791617988401867,-0.0214989867422506,0.0058));
#914=CARTESIAN_POINT('',(0.00993336216309658,-0.0261343497380235,0.0058));
#915=CARTESIAN_POINT('',(0.00635,-0.0179,0.0058));
#916=CARTESIAN_POINT('',(-0.00635,-0.0179,-0.0016));
#917=CARTESIAN_POINT('',(0.00635,-0.0179,-0.0016));
#918=CARTESIAN_POINT('',(-0.00635,-0.0179,-0.002));
#919=CARTESIAN_POINT('',(0.00635,-0.0179,-0.0016));
#920=MECHANICAL_DESIGN_GEOMETRIC_PRESENTATION_REPRESENTATION('',(#499),
#921);
#921=(
GEOMETRIC_REPRESENTATION_CONTEXT(3)
GLOBAL_UNCERTAINTY_ASSIGNED_CONTEXT((#922))
GLOBAL_UNIT_ASSIGNED_CONTEXT((#925,#924,#923))
REPRESENTATION_CONTEXT('Magnet Holder','TOP_LEVEL_ASSEMBLY_PART')
);
#922=UNCERTAINTY_MEASURE_WITH_UNIT(LENGTH_MEASURE(5.E-6),#925,
'DISTANCE_ACCURACY_VALUE','Maximum Tolerance applied to model');
#923=(
NAMED_UNIT(*)
SI_UNIT($,.STERADIAN.)
SOLID_ANGLE_UNIT()
);
#924=(
NAMED_UNIT(*)
PLANE_ANGLE_UNIT()
SI_UNIT($,.RADIAN.)
);
#925=(
LENGTH_UNIT()
NAMED_UNIT(*)
SI_UNIT($,.METRE.)
);
#926=PRODUCT_DEFINITION_SHAPE('','',#927);
#927=PRODUCT_DEFINITION('','',#929,#928);
#928=PRODUCT_DEFINITION_CONTEXT('',#935,'design');
#929=PRODUCT_DEFINITION_FORMATION_WITH_SPECIFIED_SOURCE('','',#931,
 .NOT_KNOWN.);
#930=PRODUCT_RELATED_PRODUCT_CATEGORY('','',(#931));
#931=PRODUCT('Magnet Holder','Magnet Holder','Magnet Holder',(#933));
#932=PRODUCT_CATEGORY('','');
#933=PRODUCT_CONTEXT('',#935,'mechanical');
#934=APPLICATION_PROTOCOL_DEFINITION('international standard',
'ap242_managed_model_based_3d_engineering',2011,#935);
#935=APPLICATION_CONTEXT('managed model based 3d engineering');
ENDSEC;
END-ISO-10303-21;
